<?xml version="1.0" standalone="no"?>
<!DOCTYPE svg PUBLIC "-//W3C//DTD SVG 1.1//EN" "http://www.w3.org/Graphics/SVG/1.1/DTD/svg11.dtd">
<svg width="38mm" height="38mm" viewBox="-19 -19 38 38" xmlns="http://www.w3.org/2000/svg" version="1.1">
<title>OpenSCAD Model</title>
<path d="
M -18.5,-0 L -18.4972,0.322869 L -18.4887,0.64564 L -18.4746,0.968215 L -18.4549,1.29049 L -18.4296,1.61238
 L -18.3987,1.93378 L -18.3621,2.25458 L -18.32,2.5747 L -18.2722,2.89404 L -18.2189,3.21249 L -18.1601,3.52997
 L -18.0957,3.84637 L -18.0258,4.16159 L -17.9505,4.47555 L -17.8696,4.78815 L -17.7833,5.09929 L -17.6916,5.40888
 L -17.5945,5.71681 L -17.4921,6.02301 L -17.3843,6.32737 L -17.2712,6.62981 L -17.1529,6.93022 L -17.0293,7.22853
 L -16.9006,7.52463 L -16.7667,7.81844 L -16.6277,8.10987 L -16.4836,8.39882 L -16.3345,8.68522 L -16.1805,8.96898
 L -16.0215,9.25 L -15.8576,9.5282 L -15.6889,9.80351 L -15.5154,10.0758 L -15.3372,10.3451 L -15.1543,10.6112
 L -14.9668,10.874 L -14.7748,11.1336 L -14.5782,11.3897 L -14.3772,11.6424 L -14.1718,11.8916 L -13.9621,12.1371
 L -13.7482,12.3789 L -13.53,12.617 L -13.3078,12.8512 L -13.0815,13.0815 L -12.8512,13.3078 L -12.617,13.53
 L -12.3789,13.7482 L -12.1371,13.9621 L -11.8916,14.1718 L -11.6424,14.3772 L -11.3897,14.5782 L -11.1336,14.7748
 L -10.874,14.9668 L -10.6112,15.1543 L -10.3451,15.3372 L -10.0758,15.5154 L -9.80351,15.6889 L -9.5282,15.8576
 L -9.25,16.0215 L -8.96898,16.1805 L -8.68522,16.3345 L -8.39882,16.4836 L -8.10987,16.6277 L -7.81844,16.7667
 L -7.52463,16.9006 L -7.22853,17.0293 L -6.93022,17.1529 L -6.79467,17.2063 L -3.88571,9.214 L -3.90731,9.20505
 L -4.06737,9.13545 L -4.22618,9.06308 L -4.38371,8.98794 L -4.5399,8.91006 L -4.69472,8.82948 L -4.8481,8.7462
 L -5,8.66025 L -5.15038,8.57167 L -5.29919,8.48048 L -5.44639,8.38671 L -5.59193,8.29038 L -5.73576,8.19152
 L -5.87785,8.09017 L -6.01815,7.98635 L -6.15661,7.88011 L -6.2932,7.77146 L -6.42788,7.66044 L -6.56059,7.5471
 L -6.69131,7.43145 L -6.81998,7.31354 L -6.94658,7.1934 L -7.07107,7.07107 L -7.1934,6.94658 L -7.31354,6.81998
 L -7.43145,6.69131 L -7.5471,6.56059 L -7.66044,6.42788 L -7.77146,6.2932 L -7.88011,6.15661 L -7.98635,6.01815
 L -8.09017,5.87785 L -8.19152,5.73576 L -8.29038,5.59193 L -8.38671,5.44639 L -8.48048,5.29919 L -8.57167,5.15038
 L -8.66025,5 L -8.7462,4.8481 L -8.82948,4.69472 L -8.91006,4.5399 L -8.98794,4.38371 L -9.06308,4.22618
 L -9.13545,4.06737 L -9.20505,3.90731 L -9.27184,3.74607 L -9.3358,3.58368 L -9.39693,3.4202 L -9.45518,3.25568
 L -9.51056,3.09017 L -9.56305,2.92372 L -9.61262,2.75637 L -9.65926,2.58819 L -9.70296,2.41922 L -9.7437,2.24951
 L -9.78148,2.07912 L -9.81627,1.90809 L -9.84808,1.73648 L -9.87688,1.56434 L -9.90268,1.39173 L -9.92546,1.21869
 L -9.94522,1.04528 L -9.96195,0.871557 L -9.97564,0.697564 L -9.98629,0.523359 L -9.99391,0.348994 L -9.99848,0.174523
 L -10,-0 L -9.99848,-0.174523 L -9.99391,-0.348994 L -9.98629,-0.523359 L -9.97564,-0.697564 L -9.96195,-0.871557
 L -9.94522,-1.04528 L -9.92546,-1.21869 L -9.90268,-1.39173 L -9.87688,-1.56434 L -9.84808,-1.73648 L -9.81627,-1.90809
 L -9.78148,-2.07912 L -9.7437,-2.24951 L -9.70296,-2.41922 L -9.65926,-2.58819 L -9.61262,-2.75637 L -9.56305,-2.92372
 L -9.51056,-3.09017 L -9.45518,-3.25568 L -9.39693,-3.4202 L -9.3358,-3.58368 L -9.27184,-3.74607 L -9.20505,-3.90731
 L -9.13545,-4.06737 L -9.06308,-4.22618 L -8.98794,-4.38371 L -8.91006,-4.5399 L -8.82948,-4.69472 L -8.7462,-4.8481
 L -8.66025,-5 L -8.57167,-5.15038 L -8.48048,-5.29919 L -8.38671,-5.44639 L -8.29038,-5.59193 L -8.19152,-5.73576
 L -8.09017,-5.87785 L -7.98635,-6.01815 L -7.88011,-6.15661 L -7.77146,-6.2932 L -7.66044,-6.42788 L -7.5471,-6.56059
 L -7.43145,-6.69131 L -7.31354,-6.81998 L -7.1934,-6.94658 L -7.07107,-7.07107 L -6.94658,-7.1934 L -6.81998,-7.31354
 L -6.80274,-7.32933 L -12.2698,-13.8447 L -12.3789,-13.7482 L -12.617,-13.53 L -12.8512,-13.3078 L -13.0815,-13.0815
 L -13.3078,-12.8512 L -13.53,-12.617 L -13.7482,-12.3789 L -13.9621,-12.1371 L -14.1718,-11.8916 L -14.3772,-11.6424
 L -14.5782,-11.3897 L -14.7748,-11.1336 L -14.9668,-10.874 L -15.1543,-10.6112 L -15.3372,-10.3451 L -15.5154,-10.0758
 L -15.6889,-9.80351 L -15.8576,-9.5282 L -16.0215,-9.25 L -16.1805,-8.96898 L -16.3345,-8.68522 L -16.4836,-8.39882
 L -16.6277,-8.10987 L -16.7667,-7.81844 L -16.9006,-7.52463 L -17.0293,-7.22853 L -17.1529,-6.93022 L -17.2712,-6.62981
 L -17.3843,-6.32737 L -17.4921,-6.02301 L -17.5945,-5.71681 L -17.6916,-5.40888 L -17.7833,-5.09929 L -17.8696,-4.78815
 L -17.9505,-4.47555 L -18.0258,-4.16159 L -18.0957,-3.84637 L -18.1601,-3.52997 L -18.2189,-3.21249 L -18.2722,-2.89404
 L -18.32,-2.5747 L -18.3621,-2.25458 L -18.3987,-1.93378 L -18.4296,-1.61238 L -18.4549,-1.29049 L -18.4746,-0.968215
 L -18.4887,-0.64564 L -18.4972,-0.322869 z
M -11.452,-9.14101 L -11.452,-9.14218 L -11.451,-9.19713 L -11.4443,-9.25167 L -11.4442,-9.25283 L -11.4439,-9.25397
 L -11.4316,-9.30752 L -11.4312,-9.30863 L -11.4133,-9.36059 L -11.3901,-9.41039 L -11.3896,-9.41145 L -11.389,-9.41246
 L -11.3607,-9.45956 L -11.36,-9.4605 L -11.3269,-9.50439 L -11.2894,-9.54458 L -11.2886,-9.54543 L -11.2877,-9.5462
 L -11.2463,-9.58226 L -11.2012,-9.61378 L -11.2003,-9.61445 L -11.1522,-9.64109 L -11.1512,-9.64166 L -11.1501,-9.64211
 L -11.0995,-9.66359 L -11.047,-9.67965 L -11.0459,-9.68 L -11.0447,-9.68022 L -10.9908,-9.69071 L -10.9896,-9.69081
 L -10.9348,-9.6956 L -10.8799,-9.69464 L -10.8787,-9.69462 L -10.8776,-9.69448 L -10.823,-9.68778 L -10.7695,-9.67542
 L -10.7683,-9.67515 L -10.7164,-9.65726 L -10.7153,-9.65688 L -10.7142,-9.65639 L -10.6644,-9.63316 L -10.6173,-9.60486
 L -10.6163,-9.60425 L -10.5724,-9.57118 L -10.5715,-9.57048 L -10.5706,-9.56968 L -10.5304,-9.5322 L -10.4944,-9.49073
 L -10.4936,-9.48984 L -10.4929,-9.48888 L -10.4614,-9.44387 L -10.4608,-9.44284 L -10.4342,-9.39478 L -10.4127,-9.34419
 L -10.4123,-9.34311 L -10.4119,-9.342 L -10.3959,-9.28944 L -10.3854,-9.2355 L -10.3852,-9.23435 L -10.3804,-9.1796
 L -10.3803,-9.17844 L -10.3803,-9.17727 L -10.3812,-9.12232 L -10.3879,-9.06777 L -10.3881,-9.06661 L -10.3883,-9.06547
 L -10.4007,-9.01193 L -10.4011,-9.01082 L -10.419,-8.95886 L -10.4427,-8.90799 L -10.4433,-8.90699 L -10.4716,-8.85988
 L -10.5047,-8.81599 L -10.5054,-8.81506 L -10.5429,-8.77487 L -10.5437,-8.77401 L -10.5851,-8.73796 L -10.586,-8.73719
 L -10.631,-8.70567 L -10.632,-8.705 L -10.633,-8.70443 L -10.6811,-8.67779 L -10.6822,-8.67733 L -10.7327,-8.65586
 L -10.7853,-8.63979 L -10.7864,-8.63945 L -10.8404,-8.62896 L -10.8415,-8.62874 L -10.8427,-8.62864 L -10.8974,-8.62385
 L -10.8986,-8.62387 L -10.9535,-8.62483 L -10.9547,-8.62497 L -11.0092,-8.63167 L -11.0104,-8.63193 L -11.0639,-8.64429
 L -11.1159,-8.66219 L -11.117,-8.66257 L -11.1679,-8.68629 L -11.215,-8.71459 L -11.216,-8.71519 L -11.2599,-8.74826
 L -11.2608,-8.74897 L -11.2617,-8.74977 L -11.3018,-8.78725 L -11.3379,-8.82872 L -11.3387,-8.8296 L -11.3393,-8.83056
 L -11.3709,-8.87558 L -11.3714,-8.8766 L -11.3981,-8.92467 L -11.4195,-8.97525 L -11.42,-8.97633 L -11.4203,-8.97745
 L -11.4364,-9.03 L -11.4469,-9.08395 L -11.4471,-9.0851 L -11.4519,-9.13984 z
M -7.6612,12.3409 L -7.66114,12.3397 L -7.65826,12.2848 L -7.64967,12.2305 L -7.64948,12.2294 L -7.63526,12.1763
 L -7.63496,12.1752 L -7.63454,12.1741 L -7.61484,12.1228 L -7.58989,12.0738 L -7.58936,12.0728 L -7.58873,12.0718
 L -7.5588,12.0257 L -7.55806,12.0248 L -7.52347,11.9821 L -7.48379,11.9424 L -7.48288,11.9417 L -7.44017,11.9071
 L -7.39408,11.8771 L -7.3931,11.8765 L -7.34414,11.8515 L -7.34309,11.851 L -7.29179,11.8313 L -7.29069,11.8309
 L -7.23761,11.8167 L -7.23648,11.8164 L -7.23533,11.8162 L -7.18105,11.8076 L -7.17988,11.8075 L -7.125,11.8047
 L -7.07012,11.8075 L -7.06895,11.8076 L -7.01467,11.8162 L -7.01352,11.8164 L -7.01239,11.8167 L -6.9593,11.8309
 L -6.95821,11.8313 L -6.90691,11.851 L -6.90586,11.8515 L -6.8569,11.8765 L -6.85592,11.8771 L -6.80983,11.9071
 L -6.76712,11.9417 L -6.76621,11.9424 L -6.72652,11.9821 L -6.69194,12.0248 L -6.6912,12.0257 L -6.66127,12.0718
 L -6.66064,12.0728 L -6.6601,12.0738 L -6.63516,12.1228 L -6.61546,12.1741 L -6.61504,12.1752 L -6.61474,12.1763
 L -6.60052,12.2294 L -6.60033,12.2305 L -6.59174,12.2848 L -6.58886,12.3397 L -6.5888,12.3409 L -6.58886,12.342
 L -6.59174,12.3969 L -6.60033,12.4512 L -6.60052,12.4523 L -6.61474,12.5054 L -6.61504,12.5066 L -6.61546,12.5076
 L -6.63516,12.559 L -6.6601,12.6079 L -6.66064,12.609 L -6.66127,12.6099 L -6.6912,12.656 L -6.69194,12.6569
 L -6.72652,12.6996 L -6.76538,12.7385 L -6.76621,12.7393 L -6.76712,12.7401 L -6.80983,12.7747 L -6.81081,12.7753
 L -6.8569,12.8052 L -6.90586,12.8302 L -6.90691,12.8307 L -6.908,12.8311 L -6.9593,12.8508 L -7.01239,12.865
 L -7.01352,12.8653 L -7.06779,12.8739 L -7.06895,12.8741 L -7.07012,12.8742 L -7.125,12.8771 L -7.17988,12.8742
 L -7.18105,12.8741 L -7.1822,12.8739 L -7.23648,12.8653 L -7.23761,12.865 L -7.29069,12.8508 L -7.342,12.8311
 L -7.34309,12.8307 L -7.34414,12.8302 L -7.3931,12.8052 L -7.43919,12.7753 L -7.44017,12.7747 L -7.48288,12.7401
 L -7.48379,12.7393 L -7.48462,12.7385 L -7.52347,12.6996 L -7.55806,12.6569 L -7.5588,12.656 L -7.58873,12.6099
 L -7.58936,12.609 L -7.58989,12.6079 L -7.61484,12.559 L -7.63454,12.5076 L -7.63496,12.5066 L -7.63526,12.5054
 L -7.64948,12.4523 L -7.64967,12.4512 L -7.65826,12.3969 L -7.66114,12.342 z
M -11.5038,-14.4875 L -6.0367,-7.97212 L -6.01815,-7.98635 L -5.87785,-8.09017 L -5.73576,-8.19152 L -5.59193,-8.29038
 L -5.44639,-8.38671 L -5.29919,-8.48048 L -5.15038,-8.57167 L -5,-8.66025 L -4.8481,-8.7462 L -4.69472,-8.82948
 L -4.5399,-8.91006 L -4.38371,-8.98794 L -4.22618,-9.06308 L -4.06737,-9.13545 L -3.90731,-9.20505 L -3.74607,-9.27184
 L -3.58368,-9.3358 L -3.4202,-9.39693 L -3.25568,-9.45518 L -3.09017,-9.51056 L -2.92372,-9.56305 L -2.75637,-9.61262
 L -2.58819,-9.65926 L -2.41922,-9.70296 L -2.24951,-9.7437 L -2.07912,-9.78148 L -1.90809,-9.81627 L -1.73648,-9.84808
 L -1.56434,-9.87688 L -1.39173,-9.90268 L -1.21869,-9.92546 L -1.04528,-9.94522 L -0.871557,-9.96195 L -0.697564,-9.97564
 L -0.523359,-9.98629 L -0.348994,-9.99391 L -0.174523,-9.99848 L 0,-10 L 0.174523,-9.99848 L 0.348994,-9.99391
 L 0.523359,-9.98629 L 0.697564,-9.97564 L 0.871557,-9.96195 L 1.04528,-9.94522 L 1.21869,-9.92546 L 1.39173,-9.90268
 L 1.56434,-9.87688 L 1.73648,-9.84808 L 1.90809,-9.81627 L 2.07912,-9.78148 L 2.24951,-9.7437 L 2.41922,-9.70296
 L 2.58819,-9.65926 L 2.75637,-9.61262 L 2.92372,-9.56305 L 2.94602,-9.55602 L 5.85498,-17.5483 L 5.71681,-17.5945
 L 5.40888,-17.6916 L 5.09929,-17.7833 L 4.78815,-17.8696 L 4.47555,-17.9505 L 4.16159,-18.0258 L 3.84637,-18.0957
 L 3.52997,-18.1601 L 3.21249,-18.2189 L 2.89404,-18.2722 L 2.5747,-18.32 L 2.25458,-18.3621 L 1.93378,-18.3987
 L 1.61238,-18.4296 L 1.29049,-18.4549 L 0.968215,-18.4746 L 0.64564,-18.4887 L 0.322869,-18.4972 L 0,-18.5
 L -0.322869,-18.4972 L -0.64564,-18.4887 L -0.968215,-18.4746 L -1.29049,-18.4549 L -1.61238,-18.4296 L -1.93378,-18.3987
 L -2.25458,-18.3621 L -2.5747,-18.32 L -2.89404,-18.2722 L -3.21249,-18.2189 L -3.52997,-18.1601 L -3.84637,-18.0957
 L -4.16159,-18.0258 L -4.47555,-17.9505 L -4.78815,-17.8696 L -5.09929,-17.7833 L -5.40888,-17.6916 L -5.71681,-17.5945
 L -6.02301,-17.4921 L -6.32737,-17.3843 L -6.62981,-17.2712 L -6.93022,-17.1529 L -7.22853,-17.0293 L -7.52463,-16.9006
 L -7.81844,-16.7667 L -8.10987,-16.6277 L -8.39882,-16.4836 L -8.68522,-16.3345 L -8.96898,-16.1805 L -9.25,-16.0215
 L -9.5282,-15.8576 L -9.80351,-15.6889 L -10.0758,-15.5154 L -10.3451,-15.3372 L -10.6112,-15.1543 L -10.874,-14.9668
 L -11.1336,-14.7748 L -11.3897,-14.5782 z
M -7.6612,-12.3409 L -7.66114,-12.342 L -7.65826,-12.3969 L -7.64967,-12.4512 L -7.64948,-12.4523 L -7.63526,-12.5054
 L -7.63496,-12.5066 L -7.63454,-12.5076 L -7.61484,-12.559 L -7.58989,-12.6079 L -7.58936,-12.609 L -7.58873,-12.6099
 L -7.5588,-12.656 L -7.55806,-12.6569 L -7.52347,-12.6996 L -7.48462,-12.7385 L -7.48379,-12.7393 L -7.48288,-12.7401
 L -7.44017,-12.7747 L -7.43919,-12.7753 L -7.3931,-12.8052 L -7.34414,-12.8302 L -7.34309,-12.8307 L -7.342,-12.8311
 L -7.29069,-12.8508 L -7.23761,-12.865 L -7.23648,-12.8653 L -7.1822,-12.8739 L -7.18105,-12.8741 L -7.17988,-12.8742
 L -7.125,-12.8771 L -7.07012,-12.8742 L -7.06895,-12.8741 L -7.06779,-12.8739 L -7.01352,-12.8653 L -7.01239,-12.865
 L -6.9593,-12.8508 L -6.908,-12.8311 L -6.90691,-12.8307 L -6.90586,-12.8302 L -6.8569,-12.8052 L -6.81081,-12.7753
 L -6.80983,-12.7747 L -6.76712,-12.7401 L -6.76621,-12.7393 L -6.76538,-12.7385 L -6.72652,-12.6996 L -6.69194,-12.6569
 L -6.6912,-12.656 L -6.66127,-12.6099 L -6.66064,-12.609 L -6.6601,-12.6079 L -6.63516,-12.559 L -6.61546,-12.5076
 L -6.61504,-12.5066 L -6.61474,-12.5054 L -6.60052,-12.4523 L -6.60033,-12.4512 L -6.59174,-12.3969 L -6.58886,-12.342
 L -6.5888,-12.3409 L -6.58886,-12.3397 L -6.59174,-12.2848 L -6.60033,-12.2305 L -6.60052,-12.2294 L -6.61474,-12.1763
 L -6.61504,-12.1752 L -6.61546,-12.1741 L -6.63516,-12.1228 L -6.6601,-12.0738 L -6.66064,-12.0728 L -6.66127,-12.0718
 L -6.6912,-12.0257 L -6.69194,-12.0248 L -6.72652,-11.9821 L -6.76621,-11.9424 L -6.76712,-11.9417 L -6.80983,-11.9071
 L -6.85592,-11.8771 L -6.8569,-11.8765 L -6.90586,-11.8515 L -6.90691,-11.851 L -6.95821,-11.8313 L -6.9593,-11.8309
 L -7.01239,-11.8167 L -7.01352,-11.8164 L -7.01467,-11.8162 L -7.06895,-11.8076 L -7.07012,-11.8075 L -7.125,-11.8047
 L -7.17988,-11.8075 L -7.18105,-11.8076 L -7.23533,-11.8162 L -7.23648,-11.8164 L -7.23761,-11.8167 L -7.29069,-11.8309
 L -7.29179,-11.8313 L -7.34309,-11.851 L -7.34414,-11.8515 L -7.3931,-11.8765 L -7.39408,-11.8771 L -7.44017,-11.9071
 L -7.48288,-11.9417 L -7.48379,-11.9424 L -7.52347,-11.9821 L -7.55806,-12.0248 L -7.5588,-12.0257 L -7.58873,-12.0718
 L -7.58936,-12.0728 L -7.58989,-12.0738 L -7.61484,-12.1228 L -7.63454,-12.1741 L -7.63496,-12.1752 L -7.63526,-12.1763
 L -7.64948,-12.2294 L -7.64967,-12.2305 L -7.65826,-12.2848 L -7.66114,-12.3397 z
M -5.85498,17.5483 L -5.71681,17.5945 L -5.40888,17.6916 L -5.09929,17.7833 L -4.78815,17.8696 L -4.47555,17.9505
 L -4.16159,18.0258 L -3.84637,18.0957 L -3.52997,18.1601 L -3.21249,18.2189 L -2.89404,18.2722 L -2.5747,18.32
 L -2.25458,18.3621 L -1.93378,18.3987 L -1.61238,18.4296 L -1.29049,18.4549 L -0.968215,18.4746 L -0.64564,18.4887
 L -0.322869,18.4972 L 0,18.5 L 0.322869,18.4972 L 0.64564,18.4887 L 0.968215,18.4746 L 1.29049,18.4549
 L 1.61238,18.4296 L 1.93378,18.3987 L 2.25458,18.3621 L 2.5747,18.32 L 2.89404,18.2722 L 3.21249,18.2189
 L 3.52997,18.1601 L 3.84637,18.0957 L 4.16159,18.0258 L 4.47555,17.9505 L 4.78815,17.8696 L 5.09929,17.7833
 L 5.40888,17.6916 L 5.71681,17.5945 L 6.02301,17.4921 L 6.32737,17.3843 L 6.62981,17.2712 L 6.93022,17.1529
 L 7.22853,17.0293 L 7.52463,16.9006 L 7.81844,16.7667 L 8.10987,16.6277 L 8.39882,16.4836 L 8.68522,16.3345
 L 8.96898,16.1805 L 9.25,16.0215 L 9.5282,15.8576 L 9.80351,15.6889 L 10.0758,15.5154 L 10.3451,15.3372
 L 10.6112,15.1543 L 10.874,14.9668 L 11.1336,14.7748 L 11.3897,14.5782 L 11.6424,14.3772 L 11.8916,14.1718
 L 12.1371,13.9621 L 12.3789,13.7482 L 12.617,13.53 L 12.8512,13.3078 L 13.0815,13.0815 L 13.3078,12.8512
 L 13.53,12.617 L 13.7482,12.3789 L 13.9621,12.1371 L 14.1718,11.8916 L 14.3772,11.6424 L 14.5782,11.3897
 L 14.7748,11.1336 L 14.9668,10.874 L 15.1543,10.6112 L 15.3372,10.3451 L 15.5154,10.0758 L 15.6889,9.80351
 L 15.8576,9.5282 L 16.0215,9.25 L 16.1805,8.96898 L 16.3345,8.68522 L 16.4836,8.39882 L 16.6277,8.10987
 L 16.7667,7.81844 L 16.9006,7.52463 L 17.0293,7.22853 L 17.1529,6.93022 L 17.2712,6.62981 L 17.3843,6.32737
 L 17.4921,6.02301 L 17.5945,5.71681 L 17.6916,5.40888 L 17.7833,5.09929 L 17.8696,4.78815 L 17.9505,4.47555
 L 18.0258,4.16159 L 18.0957,3.84637 L 18.1601,3.52997 L 18.2189,3.21249 L 18.2722,2.89404 L 18.32,2.5747
 L 18.3621,2.25458 L 18.3987,1.93378 L 18.4296,1.61238 L 18.4549,1.29049 L 18.4746,0.968215 L 18.4887,0.64564
 L 18.4972,0.322869 L 18.5,-0 L 18.4972,-0.322869 L 18.4887,-0.64564 L 18.4746,-0.968215 L 18.4549,-1.29049
 L 18.4296,-1.61238 L 18.3987,-1.93378 L 18.3621,-2.25458 L 18.32,-2.5747 L 18.2984,-2.71879 L 9.92241,-1.24188
 L 9.92546,-1.21869 L 9.94522,-1.04528 L 9.96195,-0.871557 L 9.97564,-0.697564 L 9.98629,-0.523359 L 9.99391,-0.348994
 L 9.99848,-0.174523 L 10,-0 L 9.99848,0.174523 L 9.99391,0.348994 L 9.98629,0.523359 L 9.97564,0.697564
 L 9.96195,0.871557 L 9.94522,1.04528 L 9.92546,1.21869 L 9.90268,1.39173 L 9.87688,1.56434 L 9.84808,1.73648
 L 9.81627,1.90809 L 9.78148,2.07912 L 9.7437,2.24951 L 9.70296,2.41922 L 9.65926,2.58819 L 9.61262,2.75637
 L 9.56305,2.92372 L 9.51056,3.09017 L 9.45518,3.25568 L 9.39693,3.4202 L 9.3358,3.58368 L 9.27184,3.74607
 L 9.20505,3.90731 L 9.13545,4.06737 L 9.06308,4.22618 L 8.98794,4.38371 L 8.91006,4.5399 L 8.82948,4.69472
 L 8.7462,4.8481 L 8.66025,5 L 8.57167,5.15038 L 8.48048,5.29919 L 8.38671,5.44639 L 8.29038,5.59193
 L 8.19152,5.73576 L 8.09017,5.87785 L 7.98635,6.01815 L 7.88011,6.15661 L 7.77146,6.2932 L 7.66044,6.42788
 L 7.5471,6.56059 L 7.43145,6.69131 L 7.31354,6.81998 L 7.1934,6.94658 L 7.07107,7.07107 L 6.94658,7.1934
 L 6.81998,7.31354 L 6.69131,7.43145 L 6.56059,7.5471 L 6.42788,7.66044 L 6.2932,7.77146 L 6.15661,7.88011
 L 6.01815,7.98635 L 5.87785,8.09017 L 5.73576,8.19152 L 5.59193,8.29038 L 5.44639,8.38671 L 5.29919,8.48048
 L 5.15038,8.57167 L 5,8.66025 L 4.8481,8.7462 L 4.69472,8.82948 L 4.5399,8.91006 L 4.38371,8.98794
 L 4.22618,9.06308 L 4.06737,9.13545 L 3.90731,9.20505 L 3.74607,9.27184 L 3.58368,9.3358 L 3.4202,9.39693
 L 3.25568,9.45518 L 3.09017,9.51056 L 2.92372,9.56305 L 2.75637,9.61262 L 2.58819,9.65926 L 2.41922,9.70296
 L 2.24951,9.7437 L 2.07912,9.78148 L 1.90809,9.81627 L 1.73648,9.84808 L 1.56434,9.87688 L 1.39173,9.90268
 L 1.21869,9.92546 L 1.04528,9.94522 L 0.871557,9.96195 L 0.697564,9.97564 L 0.523359,9.98629 L 0.348994,9.99391
 L 0.174523,9.99848 L 0,10 L -0.174523,9.99848 L -0.348994,9.99391 L -0.523359,9.98629 L -0.697564,9.97564
 L -0.871557,9.96195 L -1.04528,9.94522 L -1.21869,9.92546 L -1.39173,9.90268 L -1.56434,9.87688 L -1.73648,9.84808
 L -1.90809,9.81627 L -2.07912,9.78148 L -2.24951,9.7437 L -2.41922,9.70296 L -2.58819,9.65926 L -2.75637,9.61262
 L -2.92372,9.56305 L -2.94602,9.55602 z
M -3.01036,14.0522 L -3.01034,14.0511 L -3.00938,13.9961 L -3.00268,13.9416 L -3.00254,13.9404 L -3.00228,13.9393
 L -2.98992,13.8857 L -2.98953,13.8846 L -2.97164,13.8326 L -2.94792,13.7818 L -2.94732,13.7808 L -2.91902,13.7337
 L -2.88595,13.6898 L -2.88524,13.6888 L -2.84776,13.6487 L -2.84696,13.6478 L -2.80549,13.6117 L -2.8046,13.611
 L -2.75959,13.5795 L -2.75863,13.5788 L -2.75761,13.5782 L -2.70954,13.5516 L -2.70846,13.5511 L -2.65788,13.5296
 L -2.60532,13.5136 L -2.6042,13.5132 L -2.55026,13.5028 L -2.54911,13.5025 L -2.54795,13.5024 L -2.4932,13.4976
 L -2.49203,13.4977 L -2.43708,13.4986 L -2.43592,13.4988 L -2.38138,13.5055 L -2.38024,13.5057 L -2.32669,13.5181
 L -2.27473,13.536 L -2.27362,13.5364 L -2.22276,13.5601 L -2.17565,13.5884 L -2.17465,13.589 L -2.13076,13.6221
 L -2.12982,13.6228 L -2.12897,13.6236 L -2.08878,13.661 L -2.05272,13.7025 L -2.05195,13.7034 L -2.05128,13.7044
 L -2.01976,13.7494 L -2.01919,13.7504 L -1.99255,13.7985 L -1.97108,13.849 L -1.97062,13.8501 L -1.97028,13.8512
 L -1.95421,13.9038 L -1.94373,13.9577 L -1.9435,13.9589 L -1.93871,14.0136 L -1.93861,14.0148 L -1.93863,14.016
 L -1.93959,14.0709 L -1.94629,14.1255 L -1.94643,14.1266 L -1.9467,14.1278 L -1.95906,14.1813 L -1.95944,14.1824
 L -1.97733,14.2344 L -2.00055,14.2842 L -2.00105,14.2852 L -2.00165,14.2862 L -2.02996,14.3333 L -2.03066,14.3343
 L -2.06373,14.3782 L -2.10121,14.4184 L -2.10201,14.4192 L -2.10289,14.42 L -2.14437,14.456 L -2.18938,14.4876
 L -2.19034,14.4882 L -2.23841,14.5149 L -2.23943,14.5154 L -2.24051,14.5159 L -2.2911,14.5374 L -2.34365,14.5534
 L -2.34477,14.5538 L -2.34592,14.554 L -2.39986,14.5645 L -2.40103,14.5646 L -2.45577,14.5694 L -2.51072,14.5684
 L -2.51189,14.5684 L -2.51305,14.5683 L -2.5676,14.5616 L -2.62114,14.5492 L -2.62228,14.5489 L -2.67424,14.531
 L -2.67535,14.5307 L -2.67641,14.5302 L -2.72622,14.5069 L -2.77332,14.4786 L -2.77433,14.478 L -2.81821,14.445
 L -2.81915,14.4443 L -2.82001,14.4435 L -2.8602,14.406 L -2.89625,14.3645 L -2.89702,14.3636 L -2.89769,14.3627
 L -2.92921,14.3177 L -2.92978,14.3166 L -2.95642,14.2686 L -2.97789,14.218 L -2.97835,14.2169 L -2.97869,14.2158
 L -2.99476,14.1632 L -3.00525,14.1093 L -3.00547,14.1081 L -3.01026,14.0534 z
M 13.7138,-0 L 13.7139,-0.00116888 L 13.7167,-0.0560482 L 13.7253,-0.110326 L 13.7255,-0.111482 L 13.7397,-0.164564
 L 13.74,-0.165695 L 13.7405,-0.166787 L 13.7602,-0.218092 L 13.7851,-0.267058 L 13.7856,-0.268101 L 13.7863,-0.269082
 L 13.8162,-0.31517 L 13.8508,-0.357879 L 13.8515,-0.358788 L 13.8912,-0.398474 L 13.8921,-0.399211 L 13.9348,-0.433795
 L 13.9809,-0.463725 L 13.9819,-0.464363 L 13.9829,-0.464894 L 14.0319,-0.489843 L 14.0832,-0.509538 L 14.0843,-0.509957
 L 14.0854,-0.51026 L 14.1385,-0.524483 L 14.1397,-0.524666 L 14.194,-0.533263 L 14.2488,-0.53614 L 14.25,-0.536201
 L 14.2512,-0.53614 L 14.306,-0.533263 L 14.3603,-0.524666 L 14.3615,-0.524483 L 14.4146,-0.51026 L 14.4157,-0.509957
 L 14.4168,-0.509538 L 14.4681,-0.489843 L 14.5171,-0.464894 L 14.5181,-0.464363 L 14.5191,-0.463725 L 14.5652,-0.433795
 L 14.6079,-0.399211 L 14.6088,-0.398474 L 14.6485,-0.358788 L 14.6492,-0.357879 L 14.6838,-0.31517 L 14.7137,-0.269082
 L 14.7144,-0.268101 L 14.7149,-0.267058 L 14.7398,-0.218092 L 14.7595,-0.166787 L 14.76,-0.165695 L 14.7603,-0.164564
 L 14.7745,-0.111482 L 14.7747,-0.110326 L 14.7833,-0.0560482 L 14.7861,-0.00116888 L 14.7862,-0 L 14.7861,0.00116888
 L 14.7833,0.0560482 L 14.7747,0.110326 L 14.7745,0.111482 L 14.7603,0.164564 L 14.76,0.165695 L 14.7595,0.166787
 L 14.7398,0.218092 L 14.7149,0.267058 L 14.7144,0.268101 L 14.7137,0.269082 L 14.6838,0.31517 L 14.6492,0.357879
 L 14.6485,0.358788 L 14.6088,0.398474 L 14.6079,0.399211 L 14.5652,0.433795 L 14.5191,0.463725 L 14.5181,0.464363
 L 14.5171,0.464894 L 14.4681,0.489843 L 14.4168,0.509538 L 14.4157,0.509957 L 14.4146,0.51026 L 14.3615,0.524483
 L 14.3603,0.524666 L 14.306,0.533263 L 14.2512,0.53614 L 14.25,0.536201 L 14.2488,0.53614 L 14.194,0.533263
 L 14.1397,0.524666 L 14.1385,0.524483 L 14.0854,0.51026 L 14.0843,0.509957 L 14.0832,0.509538 L 14.0319,0.489843
 L 13.9829,0.464894 L 13.9819,0.464363 L 13.9809,0.463725 L 13.9348,0.433795 L 13.8921,0.399211 L 13.8912,0.398474
 L 13.8515,0.358788 L 13.8508,0.357879 L 13.8162,0.31517 L 13.7863,0.269082 L 13.7856,0.268101 L 13.7851,0.267058
 L 13.7602,0.218092 L 13.7405,0.166787 L 13.74,0.165695 L 13.7397,0.164564 L 13.7255,0.111482 L 13.7253,0.110326
 L 13.7167,0.0560482 L 13.7139,0.00116888 z
M 3.88571,-9.214 L 3.90731,-9.20505 L 4.06737,-9.13545 L 4.22618,-9.06308 L 4.38371,-8.98794 L 4.5399,-8.91006
 L 4.69472,-8.82948 L 4.8481,-8.7462 L 5,-8.66025 L 5.15038,-8.57167 L 5.29919,-8.48048 L 5.44639,-8.38671
 L 5.59193,-8.29038 L 5.73576,-8.19152 L 5.87785,-8.09017 L 6.01815,-7.98635 L 6.15661,-7.88011 L 6.2932,-7.77146
 L 6.42788,-7.66044 L 6.56059,-7.5471 L 6.69131,-7.43145 L 6.81998,-7.31354 L 6.94658,-7.1934 L 7.07107,-7.07107
 L 7.1934,-6.94658 L 7.31354,-6.81998 L 7.43145,-6.69131 L 7.5471,-6.56059 L 7.66044,-6.42788 L 7.77146,-6.2932
 L 7.88011,-6.15661 L 7.98635,-6.01815 L 8.09017,-5.87785 L 8.19152,-5.73576 L 8.29038,-5.59193 L 8.38671,-5.44639
 L 8.48048,-5.29919 L 8.57167,-5.15038 L 8.66025,-5 L 8.7462,-4.8481 L 8.82948,-4.69472 L 8.91006,-4.5399
 L 8.98794,-4.38371 L 9.06308,-4.22618 L 9.13545,-4.06737 L 9.20505,-3.90731 L 9.27184,-3.74607 L 9.3358,-3.58368
 L 9.39693,-3.4202 L 9.45518,-3.25568 L 9.51056,-3.09017 L 9.56305,-2.92372 L 9.61262,-2.75637 L 9.65926,-2.58819
 L 9.70296,-2.41922 L 9.7437,-2.24951 L 9.74876,-2.22668 L 18.1248,-3.7036 L 18.0957,-3.84637 L 18.0258,-4.16159
 L 17.9505,-4.47555 L 17.8696,-4.78815 L 17.7833,-5.09929 L 17.6916,-5.40888 L 17.5945,-5.71681 L 17.4921,-6.02301
 L 17.3843,-6.32737 L 17.2712,-6.62981 L 17.1529,-6.93022 L 17.0293,-7.22853 L 16.9006,-7.52463 L 16.7667,-7.81844
 L 16.6277,-8.10987 L 16.4836,-8.39882 L 16.3345,-8.68522 L 16.1805,-8.96898 L 16.0215,-9.25 L 15.8576,-9.5282
 L 15.6889,-9.80351 L 15.5154,-10.0758 L 15.3372,-10.3451 L 15.1543,-10.6112 L 14.9668,-10.874 L 14.7748,-11.1336
 L 14.5782,-11.3897 L 14.3772,-11.6424 L 14.1718,-11.8916 L 13.9621,-12.1371 L 13.7482,-12.3789 L 13.53,-12.617
 L 13.3078,-12.8512 L 13.0815,-13.0815 L 12.8512,-13.3078 L 12.617,-13.53 L 12.3789,-13.7482 L 12.1371,-13.9621
 L 11.8916,-14.1718 L 11.6424,-14.3772 L 11.3897,-14.5782 L 11.1336,-14.7748 L 10.874,-14.9668 L 10.6112,-15.1543
 L 10.3451,-15.3372 L 10.0758,-15.5154 L 9.80351,-15.6889 L 9.5282,-15.8576 L 9.25,-16.0215 L 8.96898,-16.1805
 L 8.68522,-16.3345 L 8.39882,-16.4836 L 8.10987,-16.6277 L 7.81844,-16.7667 L 7.52463,-16.9006 L 7.22853,-17.0293
 L 6.93022,-17.1529 L 6.79467,-17.2063 z
M 12.8547,-4.85507 L 12.8548,-4.85624 L 12.8557,-4.91119 L 12.8624,-4.96574 L 12.8626,-4.9669 L 12.8628,-4.96804
 L 12.8752,-5.02158 L 12.8931,-5.07354 L 12.8935,-5.07465 L 12.9172,-5.12552 L 12.9178,-5.12652 L 12.9461,-5.17363
 L 12.9792,-5.21751 L 12.9799,-5.21845 L 12.9807,-5.21931 L 13.0181,-5.2595 L 13.0596,-5.29555 L 13.0605,-5.29632
 L 13.0615,-5.29699 L 13.1065,-5.32851 L 13.1075,-5.32908 L 13.1556,-5.35572 L 13.2062,-5.37719 L 13.2072,-5.37765
 L 13.2083,-5.37799 L 13.2609,-5.39406 L 13.3148,-5.40455 L 13.316,-5.40477 L 13.3707,-5.40956 L 13.3719,-5.40966
 L 13.3731,-5.40964 L 13.428,-5.40868 L 13.4826,-5.40198 L 13.4837,-5.40184 L 13.4849,-5.40158 L 13.5384,-5.38922
 L 13.5904,-5.37132 L 13.5915,-5.37094 L 13.6424,-5.34722 L 13.6434,-5.34662 L 13.6905,-5.31832 L 13.7343,-5.28524
 L 13.7353,-5.28454 L 13.7361,-5.28374 L 13.7763,-5.24626 L 13.8124,-5.20479 L 13.8132,-5.2039 L 13.8138,-5.20295
 L 13.8453,-5.15793 L 13.8459,-5.15691 L 13.8726,-5.10884 L 13.894,-5.05826 L 13.8945,-5.05718 L 13.8948,-5.05606
 L 13.9109,-5.00351 L 13.9214,-4.94956 L 13.9216,-4.94841 L 13.9264,-4.89367 L 13.9265,-4.8925 L 13.9265,-4.89133
 L 13.9255,-4.83638 L 13.9188,-4.78184 L 13.9187,-4.78068 L 13.9184,-4.77954 L 13.906,-4.72599 L 13.8882,-4.67403
 L 13.8878,-4.67292 L 13.8641,-4.62206 L 13.8635,-4.62105 L 13.8351,-4.57395 L 13.8021,-4.53006 L 13.8014,-4.52912
 L 13.8006,-4.52827 L 13.7631,-4.48808 L 13.7216,-4.45202 L 13.7207,-4.45125 L 13.7198,-4.45058 L 13.6748,-4.41906
 L 13.6737,-4.4185 L 13.6257,-4.39185 L 13.5751,-4.37038 L 13.574,-4.36992 L 13.5729,-4.36958 L 13.5203,-4.35351
 L 13.4664,-4.34303 L 13.4652,-4.3428 L 13.4105,-4.33801 L 13.4093,-4.33791 L 13.4082,-4.33793 L 13.3532,-4.33889
 L 13.2987,-4.34559 L 13.2975,-4.34573 L 13.2964,-4.346 L 13.2428,-4.35836 L 13.1909,-4.37625 L 13.1898,-4.37663
 L 13.1389,-4.40035 L 13.1379,-4.40095 L 13.0908,-4.42926 L 13.0469,-4.46233 L 13.046,-4.46303 L 13.0451,-4.46383
 L 13.0049,-4.50131 L 12.9689,-4.54279 L 12.9681,-4.54367 L 12.9674,-4.54463 L 12.9359,-4.58964 L 12.9353,-4.59067
 L 12.9087,-4.63873 L 12.8872,-4.68932 L 12.8868,-4.6904 L 12.8864,-4.69151 L 12.8703,-4.74407 L 12.8599,-4.79801
 L 12.8596,-4.79916 L 12.8548,-4.85391 z
" stroke="black" fill="lightgray" stroke-width="0.5"/>
</svg>
