<?xml version="1.0" standalone="no"?>
<!DOCTYPE svg PUBLIC "-//W3C//DTD SVG 1.1//EN" "http://www.w3.org/Graphics/SVG/1.1/DTD/svg11.dtd">
<svg width="38mm" height="38mm" viewBox="-19 -19 38 38" xmlns="http://www.w3.org/2000/svg" version="1.1">
<title>OpenSCAD Model</title>
<path d="
M -11.8916,-14.1718 L -12.1371,-13.9621 L -12.3789,-13.7482 L -12.617,-13.53 L -12.8512,-13.3078 L -13.0815,-13.0815
 L -13.3078,-12.8512 L -13.53,-12.617 L -13.7482,-12.3789 L -13.9621,-12.1371 L -14.1718,-11.8916 L -14.3772,-11.6424
 L -14.5782,-11.3897 L -14.7747,-11.1336 L -14.9668,-10.874 L -15.1543,-10.6112 L -15.3372,-10.3451 L -15.5154,-10.0758
 L -15.6889,-9.8035 L -15.8576,-9.5282 L -16.0215,-9.25 L -16.1805,-8.96896 L -16.3345,-8.68521 L -16.4836,-8.39882
 L -16.6277,-8.10986 L -16.7667,-7.81844 L -16.9006,-7.52463 L -17.0293,-7.22852 L -17.1529,-6.93022 L -17.2712,-6.62981
 L -17.3843,-6.32736 L -17.4921,-6.02301 L -17.5945,-5.71681 L -17.6916,-5.40887 L -17.7833,-5.09929 L -17.8696,-4.78815
 L -17.9505,-4.47554 L -18.0258,-4.16159 L -18.0957,-3.84636 L -18.1601,-3.52995 L -18.2189,-3.21248 L -18.2722,-2.89403
 L -18.3199,-2.57469 L -18.3621,-2.25458 L -18.3987,-1.93376 L -18.4296,-1.61238 L -18.4549,-1.29048 L -18.4746,-0.968201
 L -18.4887,-0.64563 L -18.4972,-0.322861 L -18.5,-0 L -18.4972,0.322861 L -18.4887,0.64563 L -18.4746,0.968201
 L -18.4549,1.29048 L -18.4296,1.61238 L -18.3987,1.93376 L -18.3621,2.25458 L -18.3199,2.57469 L -18.2722,2.89403
 L -18.2189,3.21248 L -18.1601,3.52995 L -18.0957,3.84636 L -18.0258,4.16159 L -17.9505,4.47554 L -17.8696,4.78815
 L -17.7833,5.09929 L -17.6916,5.40887 L -17.5945,5.71681 L -17.4921,6.02301 L -17.3843,6.32736 L -17.2712,6.62981
 L -17.1529,6.93022 L -17.0293,7.22852 L -16.9006,7.52463 L -16.7667,7.81844 L -16.6277,8.10986 L -16.4836,8.39882
 L -16.3345,8.68521 L -16.1805,8.96896 L -16.0215,9.25 L -15.8576,9.5282 L -15.6889,9.8035 L -15.5154,10.0758
 L -15.3372,10.3451 L -15.1543,10.6112 L -14.9668,10.874 L -14.7747,11.1336 L -14.5782,11.3897 L -14.3772,11.6424
 L -14.1718,11.8916 L -13.9621,12.1371 L -13.7482,12.3789 L -13.53,12.617 L -13.3078,12.8512 L -13.0815,13.0815
 L -12.8512,13.3078 L -12.617,13.53 L -12.3789,13.7482 L -12.1371,13.9621 L -11.8916,14.1718 L -11.6424,14.3772
 L -11.3897,14.5782 L -11.1336,14.7747 L -10.874,14.9668 L -10.6112,15.1543 L -10.3451,15.3372 L -10.0758,15.5154
 L -9.8035,15.6889 L -9.5282,15.8576 L -9.25,16.0215 L -8.96896,16.1805 L -8.68521,16.3345 L -8.39882,16.4836
 L -8.10986,16.6277 L -7.81844,16.7667 L -7.52463,16.9006 L -7.22852,17.0293 L -6.93022,17.1529 L -6.62981,17.2712
 L -6.32736,17.3843 L -6.02301,17.4921 L -5.71681,17.5945 L -5.40887,17.6916 L -5.09929,17.7833 L -4.78815,17.8696
 L -4.47554,17.9505 L -4.16159,18.0258 L -3.84636,18.0957 L -3.52995,18.1601 L -3.21248,18.2189 L -2.89403,18.2722
 L -2.57469,18.3199 L -2.25458,18.3621 L -1.93376,18.3987 L -1.61238,18.4296 L -1.29048,18.4549 L -0.968201,18.4746
 L -0.64563,18.4887 L -0.322861,18.4972 L 0,18.5 L 0.322861,18.4972 L 0.64563,18.4887 L 0.968201,18.4746
 L 1.29048,18.4549 L 1.61238,18.4296 L 1.93376,18.3987 L 2.25458,18.3621 L 2.57469,18.3199 L 2.89403,18.2722
 L 3.21248,18.2189 L 3.52995,18.1601 L 3.84636,18.0957 L 4.16159,18.0258 L 4.47554,17.9505 L 4.78815,17.8696
 L 5.09929,17.7833 L 5.40887,17.6916 L 5.71681,17.5945 L 6.02301,17.4921 L 6.32736,17.3843 L 6.62981,17.2712
 L 6.93022,17.1529 L 7.22852,17.0293 L 7.52463,16.9006 L 7.81844,16.7667 L 8.10986,16.6277 L 8.39882,16.4836
 L 8.68521,16.3345 L 8.96896,16.1805 L 9.25,16.0215 L 9.5282,15.8576 L 9.8035,15.6889 L 10.0758,15.5154
 L 10.3451,15.3372 L 10.6112,15.1543 L 10.874,14.9668 L 11.1336,14.7747 L 11.3897,14.5782 L 11.6424,14.3772
 L 11.8916,14.1718 L 12.1371,13.9621 L 12.3789,13.7482 L 12.617,13.53 L 12.8512,13.3078 L 13.0815,13.0815
 L 13.3078,12.8512 L 13.53,12.617 L 13.7482,12.3789 L 13.9621,12.1371 L 14.1718,11.8916 L 14.3772,11.6424
 L 14.5782,11.3897 L 14.7747,11.1336 L 14.9668,10.874 L 15.1543,10.6112 L 15.3372,10.3451 L 15.5154,10.0758
 L 15.6889,9.8035 L 15.8576,9.5282 L 16.0215,9.25 L 16.1805,8.96896 L 16.3345,8.68521 L 16.4836,8.39882
 L 16.6277,8.10986 L 16.7667,7.81844 L 16.9006,7.52463 L 17.0293,7.22852 L 17.1529,6.93022 L 17.2712,6.62981
 L 17.3843,6.32736 L 17.4921,6.02301 L 17.5945,5.71681 L 17.6916,5.40887 L 17.7833,5.09929 L 17.8696,4.78815
 L 17.9505,4.47554 L 18.0258,4.16159 L 18.0957,3.84636 L 18.1601,3.52995 L 18.2189,3.21248 L 18.2722,2.89403
 L 18.3199,2.57469 L 18.3621,2.25458 L 18.3987,1.93376 L 18.4296,1.61238 L 18.4549,1.29048 L 18.4746,0.968201
 L 18.4887,0.64563 L 18.4972,0.322861 L 18.5,-0 L 18.4972,-0.322861 L 18.4887,-0.64563 L 18.4746,-0.968201
 L 18.4549,-1.29048 L 18.4296,-1.61238 L 18.3987,-1.93376 L 18.3621,-2.25458 L 18.3199,-2.57469 L 18.2722,-2.89403
 L 18.2189,-3.21248 L 18.1601,-3.52995 L 18.0957,-3.84636 L 18.0258,-4.16159 L 17.9505,-4.47554 L 17.8696,-4.78815
 L 17.7833,-5.09929 L 17.6916,-5.40887 L 17.5945,-5.71681 L 17.4921,-6.02301 L 17.3843,-6.32736 L 17.2712,-6.62981
 L 17.1529,-6.93022 L 17.0293,-7.22852 L 16.9006,-7.52463 L 16.7667,-7.81844 L 16.6277,-8.10986 L 16.4836,-8.39882
 L 16.3345,-8.68521 L 16.1805,-8.96896 L 16.0215,-9.25 L 15.8576,-9.5282 L 15.6889,-9.8035 L 15.5154,-10.0758
 L 15.3372,-10.3451 L 15.1543,-10.6112 L 14.9668,-10.874 L 14.7747,-11.1336 L 14.5782,-11.3897 L 14.3772,-11.6424
 L 14.1718,-11.8916 L 13.9621,-12.1371 L 13.7482,-12.3789 L 13.53,-12.617 L 13.3078,-12.8512 L 13.0815,-13.0815
 L 12.8512,-13.3078 L 12.617,-13.53 L 12.3789,-13.7482 L 12.1371,-13.9621 L 11.8916,-14.1718 L 11.6424,-14.3772
 L 11.3897,-14.5782 L 11.1336,-14.7747 L 10.874,-14.9668 L 10.6112,-15.1543 L 10.3451,-15.3372 L 10.0758,-15.5154
 L 9.8035,-15.6889 L 9.5282,-15.8576 L 9.25,-16.0215 L 8.96896,-16.1805 L 8.68521,-16.3345 L 8.39882,-16.4836
 L 8.10986,-16.6277 L 7.81844,-16.7667 L 7.52463,-16.9006 L 7.22852,-17.0293 L 6.93022,-17.1529 L 6.62981,-17.2712
 L 6.32736,-17.3843 L 6.02301,-17.4921 L 5.71681,-17.5945 L 5.40887,-17.6916 L 5.09929,-17.7833 L 4.78815,-17.8696
 L 4.47554,-17.9505 L 4.16159,-18.0258 L 3.84636,-18.0957 L 3.52995,-18.1601 L 3.21248,-18.2189 L 2.89403,-18.2722
 L 2.57469,-18.3199 L 2.25458,-18.3621 L 1.93376,-18.3987 L 1.61238,-18.4296 L 1.29048,-18.4549 L 0.968201,-18.4746
 L 0.64563,-18.4887 L 0.322861,-18.4972 L 0,-18.5 L -0.322861,-18.4972 L -0.64563,-18.4887 L -0.968201,-18.4746
 L -1.29048,-18.4549 L -1.61238,-18.4296 L -1.93376,-18.3987 L -2.25458,-18.3621 L -2.57469,-18.3199 L -2.89403,-18.2722
 L -3.21248,-18.2189 L -3.52995,-18.1601 L -3.84636,-18.0957 L -4.16159,-18.0258 L -4.47554,-17.9505 L -4.78815,-17.8696
 L -5.09929,-17.7833 L -5.40887,-17.6916 L -5.71681,-17.5945 L -6.02301,-17.4921 L -6.32736,-17.3843 L -6.62981,-17.2712
 L -6.93022,-17.1529 L -7.22852,-17.0293 L -7.52463,-16.9006 L -7.81844,-16.7667 L -8.10986,-16.6277 L -8.39882,-16.4836
 L -8.68521,-16.3345 L -8.96896,-16.1805 L -9.25,-16.0215 L -9.5282,-15.8576 L -9.8035,-15.6889 L -10.0758,-15.5154
 L -10.3451,-15.3372 L -10.6112,-15.1543 L -10.874,-14.9668 L -11.1336,-14.7747 L -11.3897,-14.5782 L -11.6424,-14.3772
 z
M -3.25568,9.45518 L -3.4202,9.39691 L -3.58368,9.3358 L -3.74606,9.27184 L -3.9073,9.20505 L -4.06735,9.13545
 L -4.22618,9.06306 L -4.3837,8.98793 L -4.5399,8.91006 L -4.6947,8.82947 L -4.84808,8.74619 L -5,8.66025
 L -5.15038,8.57167 L -5.29918,8.48047 L -5.44638,8.3867 L -5.59192,8.29037 L -5.73576,8.19151 L -5.87784,8.09016
 L -6.01814,7.98634 L -6.1566,7.8801 L -6.2932,7.77145 L -6.42787,7.66043 L -6.56058,7.54709 L -6.6913,7.43144
 L -6.81998,7.31352 L -6.94658,7.19339 L -7.07106,7.07106 L -7.19339,6.94658 L -7.31352,6.81998 L -7.43144,6.6913
 L -7.54709,6.56058 L -7.66043,6.42787 L -7.77145,6.2932 L -7.8801,6.1566 L -7.98634,6.01814 L -8.09016,5.87784
 L -8.19151,5.73576 L -8.29037,5.59192 L -8.3867,5.44638 L -8.48047,5.29918 L -8.57167,5.15038 L -8.66025,5
 L -8.74619,4.84808 L -8.82947,4.6947 L -8.91006,4.5399 L -8.98793,4.3837 L -9.06306,4.22618 L -9.13545,4.06735
 L -9.20505,3.9073 L -9.27184,3.74606 L -9.3358,3.58368 L -9.39691,3.4202 L -9.45518,3.25568 L -9.51056,3.09016
 L -9.56303,2.92371 L -9.61261,2.75636 L -9.65926,2.58818 L -9.70296,2.4192 L -9.7437,2.2495 L -9.78146,2.07912
 L -9.81627,1.90808 L -9.84807,1.73648 L -9.87688,1.56433 L -9.90268,1.39172 L -9.92546,1.21869 L -9.94521,1.04527
 L -9.96194,0.871552 L -9.97563,0.697556 L -9.98628,0.523346 L -9.9939,0.348984 L -9.99847,0.174515 L -10,-0
 L -9.99847,-0.174515 L -9.9939,-0.348984 L -9.98628,-0.523346 L -9.97563,-0.697556 L -9.96194,-0.871552 L -9.94521,-1.04527
 L -9.92546,-1.21869 L -9.90268,-1.39172 L -9.87688,-1.56433 L -9.84807,-1.73648 L -9.81627,-1.90808 L -9.78146,-2.07912
 L -9.7437,-2.2495 L -9.70296,-2.4192 L -9.65926,-2.58818 L -9.61261,-2.75636 L -9.56303,-2.92371 L -9.51056,-3.09016
 L -9.45518,-3.25568 L -9.39691,-3.4202 L -9.3358,-3.58368 L -9.27184,-3.74606 L -9.20505,-3.9073 L -9.13545,-4.06735
 L -9.06306,-4.22618 L -8.98793,-4.3837 L -8.91006,-4.5399 L -8.82947,-4.6947 L -8.74619,-4.84808 L -8.66025,-5
 L -8.57167,-5.15038 L -8.48047,-5.29918 L -8.3867,-5.44638 L -8.29037,-5.59192 L -8.19151,-5.73576 L -8.09016,-5.87784
 L -7.98634,-6.01814 L -7.8801,-6.1566 L -7.77145,-6.2932 L -7.66043,-6.42787 L -7.54709,-6.56058 L -7.43144,-6.6913
 L -7.31352,-6.81998 L -7.19339,-6.94658 L -7.07106,-7.07106 L -6.94658,-7.19339 L -6.81998,-7.31352 L -6.6913,-7.43144
 L -6.56058,-7.54709 L -6.42787,-7.66043 L -6.2932,-7.77145 L -6.1566,-7.8801 L -6.01814,-7.98634 L -5.87784,-8.09016
 L -5.73576,-8.19151 L -5.59192,-8.29037 L -5.44638,-8.3867 L -5.29918,-8.48047 L -5.15038,-8.57167 L -5,-8.66025
 L -4.84808,-8.74619 L -4.6947,-8.82947 L -4.5399,-8.91006 L -4.3837,-8.98793 L -4.22618,-9.06306 L -4.06735,-9.13545
 L -3.9073,-9.20505 L -3.74606,-9.27184 L -3.58368,-9.3358 L -3.4202,-9.39691 L -3.25568,-9.45518 L -3.09016,-9.51056
 L -2.92371,-9.56303 L -2.75636,-9.61261 L -2.58818,-9.65926 L -2.4192,-9.70296 L -2.2495,-9.7437 L -2.07912,-9.78146
 L -1.90808,-9.81627 L -1.73648,-9.84807 L -1.56433,-9.87688 L -1.39172,-9.90268 L -1.21869,-9.92546 L -1.04527,-9.94521
 L -0.871552,-9.96194 L -0.697556,-9.97563 L -0.523346,-9.98628 L -0.348984,-9.9939 L -0.174515,-9.99847 L 0,-10
 L 0.174515,-9.99847 L 0.348984,-9.9939 L 0.523346,-9.98628 L 0.697556,-9.97563 L 0.871552,-9.96194 L 1.04527,-9.94521
 L 1.21869,-9.92546 L 1.39172,-9.90268 L 1.56433,-9.87688 L 1.73648,-9.84807 L 1.90808,-9.81627 L 2.07912,-9.78146
 L 2.2495,-9.7437 L 2.4192,-9.70296 L 2.58818,-9.65926 L 2.75636,-9.61261 L 2.92371,-9.56303 L 3.09016,-9.51056
 L 3.25568,-9.45518 L 3.4202,-9.39691 L 3.58368,-9.3358 L 3.74606,-9.27184 L 3.9073,-9.20505 L 4.06735,-9.13545
 L 4.22618,-9.06306 L 4.3837,-8.98793 L 4.5399,-8.91006 L 4.6947,-8.82947 L 4.84808,-8.74619 L 5,-8.66025
 L 5.15038,-8.57167 L 5.29918,-8.48047 L 5.44638,-8.3867 L 5.59192,-8.29037 L 5.73576,-8.19151 L 5.87784,-8.09016
 L 6.01814,-7.98634 L 6.1566,-7.8801 L 6.2932,-7.77145 L 6.42787,-7.66043 L 6.56058,-7.54709 L 6.6913,-7.43144
 L 6.81998,-7.31352 L 6.94658,-7.19339 L 7.07106,-7.07106 L 7.19339,-6.94658 L 7.31352,-6.81998 L 7.43144,-6.6913
 L 7.54709,-6.56058 L 7.66043,-6.42787 L 7.77145,-6.2932 L 7.8801,-6.1566 L 7.98634,-6.01814 L 8.09016,-5.87784
 L 8.19151,-5.73576 L 8.29037,-5.59192 L 8.3867,-5.44638 L 8.48047,-5.29918 L 8.57167,-5.15038 L 8.66025,-5
 L 8.74619,-4.84808 L 8.82947,-4.6947 L 8.91006,-4.5399 L 8.98793,-4.3837 L 9.06306,-4.22618 L 9.13545,-4.06735
 L 9.20505,-3.9073 L 9.27184,-3.74606 L 9.3358,-3.58368 L 9.39691,-3.4202 L 9.45518,-3.25568 L 9.51056,-3.09016
 L 9.56303,-2.92371 L 9.61261,-2.75636 L 9.65926,-2.58818 L 9.70296,-2.4192 L 9.7437,-2.2495 L 9.78146,-2.07912
 L 9.81627,-1.90808 L 9.84807,-1.73648 L 9.87688,-1.56433 L 9.90268,-1.39172 L 9.92546,-1.21869 L 9.94521,-1.04527
 L 9.96194,-0.871552 L 9.97563,-0.697556 L 9.98628,-0.523346 L 9.9939,-0.348984 L 9.99847,-0.174515 L 10,-0
 L 9.99847,0.174515 L 9.9939,0.348984 L 9.98628,0.523346 L 9.97563,0.697556 L 9.96194,0.871552 L 9.94521,1.04527
 L 9.92546,1.21869 L 9.90268,1.39172 L 9.87688,1.56433 L 9.84807,1.73648 L 9.81627,1.90808 L 9.78146,2.07912
 L 9.7437,2.2495 L 9.70296,2.4192 L 9.65926,2.58818 L 9.61261,2.75636 L 9.56303,2.92371 L 9.51056,3.09016
 L 9.45518,3.25568 L 9.39691,3.4202 L 9.3358,3.58368 L 9.27184,3.74606 L 9.20505,3.9073 L 9.13545,4.06735
 L 9.06306,4.22618 L 8.98793,4.3837 L 8.91006,4.5399 L 8.82947,4.6947 L 8.74619,4.84808 L 8.66025,5
 L 8.57167,5.15038 L 8.48047,5.29918 L 8.3867,5.44638 L 8.29037,5.59192 L 8.19151,5.73576 L 8.09016,5.87784
 L 7.98634,6.01814 L 7.8801,6.1566 L 7.77145,6.2932 L 7.66043,6.42787 L 7.54709,6.56058 L 7.43144,6.6913
 L 7.31352,6.81998 L 7.19339,6.94658 L 7.07106,7.07106 L 6.94658,7.19339 L 6.81998,7.31352 L 6.6913,7.43144
 L 6.56058,7.54709 L 6.42787,7.66043 L 6.2932,7.77145 L 6.1566,7.8801 L 6.01814,7.98634 L 5.87784,8.09016
 L 5.73576,8.19151 L 5.59192,8.29037 L 5.44638,8.3867 L 5.29918,8.48047 L 5.15038,8.57167 L 5,8.66025
 L 4.84808,8.74619 L 4.6947,8.82947 L 4.5399,8.91006 L 4.3837,8.98793 L 4.22618,9.06306 L 4.06735,9.13545
 L 3.9073,9.20505 L 3.74606,9.27184 L 3.58368,9.3358 L 3.4202,9.39691 L 3.25568,9.45518 L 3.09016,9.51056
 L 2.92371,9.56303 L 2.75636,9.61261 L 2.58818,9.65926 L 2.4192,9.70296 L 2.2495,9.7437 L 2.07912,9.78146
 L 1.90808,9.81627 L 1.73648,9.84807 L 1.56433,9.87688 L 1.39172,9.90268 L 1.21869,9.92546 L 1.04527,9.94521
 L 0.871552,9.96194 L 0.697556,9.97563 L 0.523346,9.98628 L 0.348984,9.9939 L 0.174515,9.99847 L 0,10
 L -0.174515,9.99847 L -0.348984,9.9939 L -0.523346,9.98628 L -0.697556,9.97563 L -0.871552,9.96194 L -1.04527,9.94521
 L -1.21869,9.92546 L -1.39172,9.90268 L -1.56433,9.87688 L -1.73648,9.84807 L -1.90808,9.81627 L -2.07912,9.78146
 L -2.2495,9.7437 L -2.4192,9.70296 L -2.58818,9.65926 L -2.75636,9.61261 L -2.92371,9.56303 L -3.09016,9.51056
 z
" stroke="black" fill="lightgray" stroke-width="0.5"/>
</svg>
