<?xml version="1.0" standalone="no"?>
<!DOCTYPE svg PUBLIC "-//W3C//DTD SVG 1.1//EN" "http://www.w3.org/Graphics/SVG/1.1/DTD/svg11.dtd">
<svg width="38mm" height="38mm" viewBox="-19 -19 38 38" xmlns="http://www.w3.org/2000/svg" version="1.1">
<title>OpenSCAD Model</title>
<path d="
M -18.5,-0 L -18.4972,0.322869 L -18.4887,0.64564 L -18.4746,0.968215 L -18.4549,1.29049 L -18.4296,1.61238
 L -18.3987,1.93378 L -18.3621,2.25458 L -18.32,2.5747 L -18.2722,2.89404 L -18.2189,3.21249 L -18.1601,3.52997
 L -18.0957,3.84637 L -18.0258,4.16159 L -17.9505,4.47555 L -17.8696,4.78815 L -17.7833,5.09929 L -17.6916,5.40888
 L -17.5945,5.71681 L -17.4921,6.02301 L -17.3843,6.32737 L -17.2712,6.62981 L -17.1529,6.93022 L -17.0293,7.22853
 L -16.9006,7.52463 L -16.7667,7.81844 L -16.6277,8.10987 L -16.4836,8.39882 L -16.3345,8.68522 L -16.1805,8.96898
 L -16.0215,9.25 L -15.8576,9.5282 L -15.6889,9.80351 L -15.5154,10.0758 L -15.3372,10.3451 L -15.1543,10.6112
 L -14.9668,10.874 L -14.7748,11.1336 L -14.5782,11.3897 L -14.3772,11.6424 L -14.1718,11.8916 L -13.9621,12.1371
 L -13.7482,12.3789 L -13.53,12.617 L -13.3078,12.8512 L -13.0815,13.0815 L -12.8512,13.3078 L -12.617,13.53
 L -12.3789,13.7482 L -12.1371,13.9621 L -11.8916,14.1718 L -11.6424,14.3772 L -11.3897,14.5782 L -11.1336,14.7748
 L -10.874,14.9668 L -10.6112,15.1543 L -10.3451,15.3372 L -10.0758,15.5154 L -9.80351,15.6889 L -9.5282,15.8576
 L -9.25,16.0215 L -8.96898,16.1805 L -8.68522,16.3345 L -8.39882,16.4836 L -8.10987,16.6277 L -7.81844,16.7667
 L -7.52463,16.9006 L -7.22853,17.0293 L -6.93022,17.1529 L -6.68664,17.2489 L -6.04168,15.4768 L -3.77837,9.25846
 L -3.90731,9.20505 L -4.06737,9.13545 L -4.22618,9.06308 L -4.38371,8.98794 L -4.5399,8.91006 L -4.69472,8.82948
 L -4.8481,8.7462 L -5,8.66025 L -5.15038,8.57167 L -5.29919,8.48048 L -5.44639,8.38671 L -5.59193,8.29038
 L -5.73576,8.19152 L -5.87785,8.09017 L -6.01815,7.98635 L -6.15661,7.88011 L -6.2932,7.77146 L -6.42788,7.66044
 L -6.56059,7.5471 L -6.69131,7.43145 L -6.81998,7.31354 L -6.94658,7.1934 L -7.07107,7.07107 L -7.1934,6.94658
 L -7.31354,6.81998 L -7.43145,6.69131 L -7.5471,6.56059 L -7.66044,6.42788 L -7.77146,6.2932 L -7.88011,6.15661
 L -7.98635,6.01815 L -8.09017,5.87785 L -8.19152,5.73576 L -8.29038,5.59193 L -8.38671,5.44639 L -8.48048,5.29919
 L -8.57167,5.15038 L -8.66025,5 L -8.7462,4.8481 L -8.82948,4.69472 L -8.91006,4.5399 L -8.98794,4.38371
 L -9.06308,4.22618 L -9.13545,4.06737 L -9.20505,3.90731 L -9.27184,3.74607 L -9.3358,3.58368 L -9.39693,3.4202
 L -9.45518,3.25568 L -9.51056,3.09017 L -9.56305,2.92372 L -9.61262,2.75637 L -9.65926,2.58819 L -9.70296,2.41922
 L -9.7437,2.24951 L -9.78148,2.07912 L -9.81627,1.90809 L -9.84808,1.73648 L -9.87688,1.56434 L -9.90268,1.39173
 L -9.92546,1.21869 L -9.94522,1.04528 L -9.96195,0.871557 L -9.97564,0.697564 L -9.98629,0.523359 L -9.99391,0.348994
 L -9.99848,0.174523 L -10,-0 L -9.99848,-0.174523 L -9.99391,-0.348994 L -9.98629,-0.523359 L -9.97564,-0.697564
 L -9.96195,-0.871557 L -9.94522,-1.04528 L -9.92546,-1.21869 L -9.90268,-1.39173 L -9.87688,-1.56434 L -9.84808,-1.73648
 L -9.81627,-1.90809 L -9.78148,-2.07912 L -9.7437,-2.24951 L -9.70296,-2.41922 L -9.65926,-2.58819 L -9.61262,-2.75637
 L -9.56305,-2.92372 L -9.51056,-3.09017 L -9.45518,-3.25568 L -9.39693,-3.4202 L -9.3358,-3.58368 L -9.27184,-3.74607
 L -9.20505,-3.90731 L -9.13545,-4.06737 L -9.06308,-4.22618 L -8.98794,-4.38371 L -8.91006,-4.5399 L -8.82948,-4.69472
 L -8.7462,-4.8481 L -8.66025,-5 L -8.57167,-5.15038 L -8.48048,-5.29919 L -8.38671,-5.44639 L -8.29038,-5.59193
 L -8.19152,-5.73576 L -8.09017,-5.87785 L -7.98635,-6.01815 L -7.88011,-6.15661 L -7.77146,-6.2932 L -7.66044,-6.42788
 L -7.5471,-6.56059 L -7.43145,-6.69131 L -7.31354,-6.81998 L -7.1934,-6.94658 L -7.07107,-7.07107 L -6.94658,-7.1934
 L -6.81998,-7.31354 L -6.71709,-7.40782 L -10.9707,-12.4771 L -12.1828,-13.9217 L -12.3789,-13.7482 L -12.617,-13.53
 L -12.8512,-13.3078 L -13.0815,-13.0815 L -13.3078,-12.8512 L -13.53,-12.617 L -13.7482,-12.3789 L -13.9621,-12.1371
 L -14.1718,-11.8916 L -14.3772,-11.6424 L -14.5782,-11.3897 L -14.7748,-11.1336 L -14.9668,-10.874 L -15.1543,-10.6112
 L -15.3372,-10.3451 L -15.5154,-10.0758 L -15.6889,-9.80351 L -15.8576,-9.5282 L -16.0215,-9.25 L -16.1805,-8.96898
 L -16.3345,-8.68522 L -16.4836,-8.39882 L -16.6277,-8.10987 L -16.7667,-7.81844 L -16.9006,-7.52463 L -17.0293,-7.22853
 L -17.1529,-6.93022 L -17.2712,-6.62981 L -17.3843,-6.32737 L -17.4921,-6.02301 L -17.5945,-5.71681 L -17.6916,-5.40888
 L -17.7833,-5.09929 L -17.8696,-4.78815 L -17.9505,-4.47555 L -18.0258,-4.16159 L -18.0957,-3.84637 L -18.1601,-3.52997
 L -18.2189,-3.21249 L -18.2722,-2.89404 L -18.32,-2.5747 L -18.3621,-2.25458 L -18.3987,-1.93378 L -18.4296,-1.61238
 L -18.4549,-1.29049 L -18.4746,-0.968215 L -18.4887,-0.64564 L -18.4972,-0.322869 z
M -12.7592,-9.09536 L -12.7566,-9.24323 L -12.7558,-9.28837 L -12.7503,-9.33318 L -12.7323,-9.47997 L -12.699,-9.62406
 L -12.6889,-9.66805 L -12.6742,-9.71074 L -12.626,-9.85057 L -12.607,-9.89149 L -12.5445,-10.0255 L -12.4683,-10.1523
 L -12.445,-10.191 L -12.4179,-10.227 L -12.3289,-10.3452 L -12.228,-10.4533 L -12.1972,-10.4863 L -12.1631,-10.5159
 L -12.0515,-10.613 L -12.0146,-10.6389 L -11.8934,-10.7237 L -11.7641,-10.7954 L -11.7246,-10.8173 L -11.683,-10.8349
 L -11.5469,-10.8927 L -11.4055,-10.9359 L -11.3623,-10.9491 L -11.318,-10.9578 L -11.1728,-10.986 L -11.0255,-10.9989
 L -10.9805,-11.0028 L -10.8326,-11.0002 L -10.7875,-10.9994 L -10.7427,-10.9939 L -10.5959,-10.9759 L -10.4518,-10.9426
 L -10.4078,-10.9325 L -10.3651,-10.9178 L -10.2253,-10.8696 L -10.0913,-10.8071 L -10.0503,-10.7881 L -9.92357,-10.7119
 L -9.88487,-10.6886 L -9.84881,-10.6615 L -9.7307,-10.5725 L -9.62255,-10.4716 L -9.58953,-10.4408 L -9.55991,-10.4067
 L -9.46288,-10.2951 L -9.37806,-10.174 L -9.35216,-10.137 L -9.28047,-10.0077 L -9.25858,-9.96817 L -9.24094,-9.92661
 L -9.18315,-9.79048 L -9.13992,-9.64905 L -9.12672,-9.60587 L -9.0985,-9.4607 L -9.08988,-9.41639 L -9.07699,-9.26906
 L -9.07306,-9.22408 L -9.07385,-9.17894 L -9.07643,-9.03108 L -9.09445,-8.88429 L -9.09995,-8.83948 L -9.13322,-8.69538
 L -9.14338,-8.65139 L -9.15807,-8.60871 L -9.20622,-8.46887 L -9.26872,-8.33484 L -9.2878,-8.29392 L -9.31105,-8.25523
 L -9.38722,-8.12846 L -9.47622,-8.01035 L -9.5034,-7.9743 L -9.53419,-7.94128 L -9.63505,-7.83312 L -9.66912,-7.8035
 L -9.78073,-7.70648 L -9.90187,-7.62165 L -9.93886,-7.59575 L -9.97834,-7.57387 L -10.1077,-7.50217 L -10.2438,-7.44438
 L -10.2854,-7.42674 L -10.3286,-7.41354 L -10.47,-7.37031 L -10.6152,-7.34209 L -10.6595,-7.33347 L -10.7044,-7.32954
 L -10.8518,-7.31665 L -10.9996,-7.31923 L -11.0448,-7.32002 L -11.1916,-7.33804 L -11.2364,-7.34354 L -11.2804,-7.3537
 L -11.4245,-7.38697 L -11.5643,-7.43511 L -11.607,-7.44981 L -11.6479,-7.46889 L -11.7819,-7.53139 L -11.9087,-7.60756
 L -11.9474,-7.63081 L -11.9835,-7.65798 L -12.1016,-7.74699 L -12.1346,-7.77778 L -12.2427,-7.87864 L -12.3398,-7.99025
 L -12.3694,-8.02432 L -12.3953,-8.0613 L -12.4801,-8.18245 L -12.502,-8.22193 L -12.5737,-8.35128 L -12.5913,-8.39284
 L -12.6491,-8.52897 L -12.6924,-8.6704 L -12.7055,-8.71357 L -12.7142,-8.75789 L -12.7424,-8.90306 L -12.7463,-8.94804
 z
M -8.9692,12.3409 L -8.96146,12.1932 L -8.95909,12.1481 L -8.93596,12.002 L -8.9289,11.9574 L -8.89062,11.8146
 L -8.87894,11.771 L -8.86276,11.7288 L -8.80976,11.5908 L -8.74262,11.459 L -8.72212,11.4188 L -8.64158,11.2947
 L -8.61699,11.2569 L -8.58858,11.2218 L -8.49551,11.1069 L -8.39093,11.0023 L -8.35901,10.9704 L -8.32392,10.9419
 L -8.20899,10.8489 L -8.08496,10.7683 L -8.0471,10.7437 L -8.00687,10.7232 L -7.8751,10.6561 L -7.83295,10.6399
 L -7.69489,10.5869 L -7.55204,10.5486 L -7.50843,10.537 L -7.46384,10.5299 L -7.31777,10.5068 L -7.17008,10.499
 L -7.125,10.4967 L -7.07991,10.499 L -6.93223,10.5068 L -6.78616,10.5299 L -6.74157,10.537 L -6.69796,10.5486
 L -6.55511,10.5869 L -6.41704,10.6399 L -6.3749,10.6561 L -6.24313,10.7232 L -6.2029,10.7437 L -6.16504,10.7683
 L -6.04101,10.8489 L -5.92608,10.9419 L -5.89099,10.9704 L -5.85907,11.0023 L -5.75449,11.1069 L -5.66142,11.2218
 L -5.63301,11.2569 L -5.60842,11.2947 L -5.52788,11.4188 L -5.50738,11.459 L -5.44024,11.5908 L -5.38724,11.7288
 L -5.37106,11.771 L -5.35938,11.8146 L -5.3211,11.9574 L -5.31404,12.002 L -5.2909,12.1481 L -5.28854,12.1932
 L -5.2808,12.3409 L -5.28854,12.4885 L -5.2909,12.5336 L -5.29797,12.5782 L -5.3211,12.7243 L -5.33279,12.7679
 L -5.37106,12.9108 L -5.42406,13.0488 L -5.44024,13.091 L -5.46074,13.1312 L -5.52788,13.263 L -5.60842,13.387
 L -5.63301,13.4249 L -5.66142,13.4599 L -5.75449,13.5749 L -5.78642,13.6068 L -5.89099,13.7114 L -6.00592,13.8044
 L -6.04101,13.8328 L -6.07887,13.8574 L -6.2029,13.938 L -6.33467,14.0051 L -6.3749,14.0256 L -6.41704,14.0418
 L -6.55511,14.0948 L -6.59872,14.1065 L -6.74157,14.1448 L -6.88764,14.1679 L -6.93223,14.175 L -6.97731,14.1773
 L -7.125,14.1851 L -7.27269,14.1773 L -7.31777,14.175 L -7.36236,14.1679 L -7.50843,14.1448 L -7.65128,14.1065
 L -7.69489,14.0948 L -7.83295,14.0418 L -7.8751,14.0256 L -7.91533,14.0051 L -8.0471,13.938 L -8.17113,13.8574
 L -8.20899,13.8328 L -8.24408,13.8044 L -8.35901,13.7114 L -8.46358,13.6068 L -8.49551,13.5749 L -8.58858,13.4599
 L -8.61699,13.4249 L -8.64158,13.387 L -8.72212,13.263 L -8.78926,13.1312 L -8.80976,13.091 L -8.82594,13.0488
 L -8.87894,12.9108 L -8.91721,12.7679 L -8.9289,12.7243 L -8.95203,12.5782 L -8.95909,12.5336 L -8.96146,12.4885
 z
M -11.5946,-14.4152 L -6.12887,-7.9014 L -6.01815,-7.98635 L -5.87785,-8.09017 L -5.73576,-8.19152 L -5.59193,-8.29038
 L -5.44639,-8.38671 L -5.29919,-8.48048 L -5.15038,-8.57167 L -5,-8.66025 L -4.8481,-8.7462 L -4.69472,-8.82948
 L -4.5399,-8.91006 L -4.38371,-8.98794 L -4.22618,-9.06308 L -4.06737,-9.13545 L -3.90731,-9.20505 L -3.74607,-9.27184
 L -3.58368,-9.3358 L -3.4202,-9.39693 L -3.25568,-9.45518 L -3.09017,-9.51056 L -2.92372,-9.56305 L -2.75637,-9.61262
 L -2.58819,-9.65926 L -2.41922,-9.70296 L -2.24951,-9.7437 L -2.07912,-9.78148 L -1.90809,-9.81627 L -1.73648,-9.84808
 L -1.56434,-9.87688 L -1.39173,-9.90268 L -1.21869,-9.92546 L -1.04528,-9.94522 L -0.871557,-9.96195 L -0.697564,-9.97564
 L -0.523359,-9.98629 L -0.348994,-9.99391 L -0.174523,-9.99848 L 0,-10 L 0.174523,-9.99848 L 0.348994,-9.99391
 L 0.523359,-9.98629 L 0.697564,-9.97564 L 0.871557,-9.96195 L 1.04528,-9.94522 L 1.21869,-9.92546 L 1.39173,-9.90268
 L 1.56434,-9.87688 L 1.73648,-9.84808 L 1.90809,-9.81627 L 2.07912,-9.78148 L 2.24951,-9.7437 L 2.41922,-9.70296
 L 2.58819,-9.65926 L 2.75637,-9.61262 L 2.92372,-9.56305 L 3.09017,-9.51056 L 3.25568,-9.45518 L 3.4202,-9.39693
 L 3.58368,-9.3358 L 3.74607,-9.27184 L 3.90731,-9.20505 L 4.06737,-9.13545 L 4.22618,-9.06308 L 4.38371,-8.98794
 L 4.5399,-8.91006 L 4.69472,-8.82948 L 4.8481,-8.7462 L 5,-8.66025 L 5.15038,-8.57167 L 5.29919,-8.48048
 L 5.44639,-8.38671 L 5.59193,-8.29038 L 5.73576,-8.19152 L 5.87785,-8.09017 L 6.01815,-7.98635 L 6.15661,-7.88011
 L 6.2932,-7.77146 L 6.42788,-7.66044 L 6.56059,-7.5471 L 6.69131,-7.43145 L 6.81998,-7.31354 L 6.94658,-7.1934
 L 7.07107,-7.07107 L 7.1934,-6.94658 L 7.31354,-6.81998 L 7.43145,-6.69131 L 7.5471,-6.56059 L 7.66044,-6.42788
 L 7.77146,-6.2932 L 7.88011,-6.15661 L 7.98635,-6.01815 L 8.09017,-5.87785 L 8.19152,-5.73576 L 8.29038,-5.59193
 L 8.38671,-5.44639 L 8.48048,-5.29919 L 8.57167,-5.15038 L 8.66025,-5 L 8.7462,-4.8481 L 8.82948,-4.69472
 L 8.91006,-4.5399 L 8.98794,-4.38371 L 9.06308,-4.22618 L 9.13545,-4.06737 L 9.20505,-3.90731 L 9.27184,-3.74607
 L 9.3358,-3.58368 L 9.39693,-3.4202 L 9.45518,-3.25568 L 9.51056,-3.09017 L 9.56305,-2.92372 L 9.61262,-2.75637
 L 9.65926,-2.58819 L 9.70296,-2.41922 L 9.7437,-2.24951 L 9.77391,-2.11326 L 18.1479,-3.58982 L 18.0957,-3.84637
 L 18.0258,-4.16159 L 17.9505,-4.47555 L 17.8696,-4.78815 L 17.7833,-5.09929 L 17.6916,-5.40888 L 17.5945,-5.71681
 L 17.4921,-6.02301 L 17.3843,-6.32737 L 17.2712,-6.62981 L 17.1529,-6.93022 L 17.0293,-7.22853 L 16.9006,-7.52463
 L 16.7667,-7.81844 L 16.6277,-8.10987 L 16.4836,-8.39882 L 16.3345,-8.68522 L 16.1805,-8.96898 L 16.0215,-9.25
 L 15.8576,-9.5282 L 15.6889,-9.80351 L 15.5154,-10.0758 L 15.3372,-10.3451 L 15.1543,-10.6112 L 14.9668,-10.874
 L 14.7748,-11.1336 L 14.5782,-11.3897 L 14.3772,-11.6424 L 14.1718,-11.8916 L 13.9621,-12.1371 L 13.7482,-12.3789
 L 13.53,-12.617 L 13.3078,-12.8512 L 13.0815,-13.0815 L 12.8512,-13.3078 L 12.617,-13.53 L 12.3789,-13.7482
 L 12.1371,-13.9621 L 11.8916,-14.1718 L 11.6424,-14.3772 L 11.3897,-14.5782 L 11.1336,-14.7748 L 10.874,-14.9668
 L 10.6112,-15.1543 L 10.3451,-15.3372 L 10.0758,-15.5154 L 9.80351,-15.6889 L 9.5282,-15.8576 L 9.25,-16.0215
 L 8.96898,-16.1805 L 8.68522,-16.3345 L 8.39882,-16.4836 L 8.10987,-16.6277 L 7.81844,-16.7667 L 7.52463,-16.9006
 L 7.22853,-17.0293 L 6.93022,-17.1529 L 6.62981,-17.2712 L 6.32737,-17.3843 L 6.02301,-17.4921 L 5.71681,-17.5945
 L 5.40888,-17.6916 L 5.09929,-17.7833 L 4.78815,-17.8696 L 4.47555,-17.9505 L 4.16159,-18.0258 L 3.84637,-18.0957
 L 3.52997,-18.1601 L 3.21249,-18.2189 L 2.89404,-18.2722 L 2.5747,-18.32 L 2.25458,-18.3621 L 1.93378,-18.3987
 L 1.61238,-18.4296 L 1.29049,-18.4549 L 0.968215,-18.4746 L 0.64564,-18.4887 L 0.322869,-18.4972 L 0,-18.5
 L -0.322869,-18.4972 L -0.64564,-18.4887 L -0.968215,-18.4746 L -1.29049,-18.4549 L -1.61238,-18.4296 L -1.93378,-18.3987
 L -2.25458,-18.3621 L -2.5747,-18.32 L -2.89404,-18.2722 L -3.21249,-18.2189 L -3.52997,-18.1601 L -3.84637,-18.0957
 L -4.16159,-18.0258 L -4.47555,-17.9505 L -4.78815,-17.8696 L -5.09929,-17.7833 L -5.40888,-17.6916 L -5.71681,-17.5945
 L -6.02301,-17.4921 L -6.32737,-17.3843 L -6.62981,-17.2712 L -6.93022,-17.1529 L -7.22853,-17.0293 L -7.52463,-16.9006
 L -7.81844,-16.7667 L -8.10987,-16.6277 L -8.39882,-16.4836 L -8.68522,-16.3345 L -8.96898,-16.1805 L -9.25,-16.0215
 L -9.5282,-15.8576 L -9.80351,-15.6889 L -10.0758,-15.5154 L -10.3451,-15.3372 L -10.6112,-15.1543 L -10.874,-14.9668
 L -11.1336,-14.7748 L -11.3897,-14.5782 z
M -8.9692,-12.3409 L -8.96146,-12.4885 L -8.95909,-12.5336 L -8.95203,-12.5782 L -8.9289,-12.7243 L -8.91721,-12.7679
 L -8.87894,-12.9108 L -8.82594,-13.0488 L -8.80976,-13.091 L -8.78926,-13.1312 L -8.72212,-13.263 L -8.64158,-13.387
 L -8.61699,-13.4249 L -8.58858,-13.4599 L -8.49551,-13.5749 L -8.46358,-13.6068 L -8.35901,-13.7114 L -8.24408,-13.8044
 L -8.20899,-13.8328 L -8.17113,-13.8574 L -8.0471,-13.938 L -7.91533,-14.0051 L -7.8751,-14.0256 L -7.83295,-14.0418
 L -7.69489,-14.0948 L -7.65128,-14.1065 L -7.50843,-14.1448 L -7.36236,-14.1679 L -7.31777,-14.175 L -7.27269,-14.1773
 L -7.125,-14.1851 L -6.97731,-14.1773 L -6.93223,-14.175 L -6.88764,-14.1679 L -6.74157,-14.1448 L -6.59872,-14.1065
 L -6.55511,-14.0948 L -6.41704,-14.0418 L -6.3749,-14.0256 L -6.33467,-14.0051 L -6.2029,-13.938 L -6.07887,-13.8574
 L -6.04101,-13.8328 L -6.00592,-13.8044 L -5.89099,-13.7114 L -5.78642,-13.6068 L -5.75449,-13.5749 L -5.66142,-13.4599
 L -5.63301,-13.4249 L -5.60842,-13.387 L -5.52788,-13.263 L -5.46074,-13.1312 L -5.44024,-13.091 L -5.42406,-13.0488
 L -5.37106,-12.9108 L -5.33279,-12.7679 L -5.3211,-12.7243 L -5.29797,-12.5782 L -5.2909,-12.5336 L -5.28854,-12.4885
 L -5.2808,-12.3409 L -5.28854,-12.1932 L -5.2909,-12.1481 L -5.31404,-12.002 L -5.3211,-11.9574 L -5.35938,-11.8146
 L -5.37106,-11.771 L -5.38724,-11.7288 L -5.44024,-11.5908 L -5.50738,-11.459 L -5.52788,-11.4188 L -5.60842,-11.2947
 L -5.63301,-11.2569 L -5.66142,-11.2218 L -5.75449,-11.1069 L -5.85907,-11.0023 L -5.89099,-10.9704 L -5.92608,-10.9419
 L -6.04101,-10.8489 L -6.16504,-10.7683 L -6.2029,-10.7437 L -6.24313,-10.7232 L -6.3749,-10.6561 L -6.41704,-10.6399
 L -6.55511,-10.5869 L -6.69796,-10.5486 L -6.74157,-10.537 L -6.78616,-10.5299 L -6.93223,-10.5068 L -7.07991,-10.499
 L -7.125,-10.4967 L -7.17008,-10.499 L -7.31777,-10.5068 L -7.46384,-10.5299 L -7.50843,-10.537 L -7.55204,-10.5486
 L -7.69489,-10.5869 L -7.83295,-10.6399 L -7.8751,-10.6561 L -8.00687,-10.7232 L -8.0471,-10.7437 L -8.08496,-10.7683
 L -8.20899,-10.8489 L -8.32392,-10.9419 L -8.35901,-10.9704 L -8.39093,-11.0023 L -8.49551,-11.1069 L -8.58858,-11.2218
 L -8.61699,-11.2569 L -8.64158,-11.2947 L -8.72212,-11.4188 L -8.74262,-11.459 L -8.80976,-11.5908 L -8.86276,-11.7288
 L -8.87894,-11.771 L -8.89062,-11.8146 L -8.9289,-11.9574 L -8.93596,-12.002 L -8.95909,-12.1481 L -8.96146,-12.1932
 z
M 11.5475,-4.80942 L 11.5501,-4.95729 L 11.5509,-5.00243 L 11.5689,-5.14922 L 11.5744,-5.19403 L 11.6077,-5.33813
 L 11.6179,-5.38212 L 11.6326,-5.4248 L 11.6807,-5.56464 L 11.7623,-5.73958 L 11.8385,-5.86635 L 11.8617,-5.90505
 L 11.8889,-5.9411 L 11.9779,-6.05921 L 12.0087,-6.09223 L 12.1095,-6.20039 L 12.1436,-6.23001 L 12.2552,-6.32703
 L 12.2922,-6.35293 L 12.4133,-6.43776 L 12.5427,-6.50945 L 12.5822,-6.53134 L 12.6237,-6.54898 L 12.7599,-6.60677
 L 12.9013,-6.65 L 12.9445,-6.6632 L 12.9888,-6.67182 L 13.134,-6.70004 L 13.2813,-6.71293 L 13.3263,-6.71686
 L 13.4741,-6.71428 L 13.5193,-6.71349 L 13.6661,-6.69547 L 13.7109,-6.68997 L 13.855,-6.6567 L 13.8989,-6.64654
 L 13.9416,-6.63185 L 14.0815,-6.5837 L 14.2564,-6.50212 L 14.3832,-6.42595 L 14.4219,-6.4027 L 14.4579,-6.37553
 L 14.576,-6.28652 L 14.6091,-6.25573 L 14.7172,-6.15487 L 14.7468,-6.1208 L 14.8439,-6.00919 L 14.8698,-5.97221
 L 14.9546,-5.85106 L 15.0263,-5.72172 L 15.0482,-5.68223 L 15.0658,-5.64067 L 15.1236,-5.50454 L 15.1668,-5.36311
 L 15.18,-5.31994 L 15.1887,-5.27562 L 15.2169,-5.13045 L 15.2298,-4.98312 L 15.2337,-4.93815 L 15.2311,-4.79028
 L 15.2303,-4.74514 L 15.2123,-4.59836 L 15.2068,-4.55355 L 15.1735,-4.40945 L 15.1634,-4.36546 L 15.1487,-4.32277
 L 15.1005,-4.18294 L 15.0189,-4.00799 L 14.9428,-3.88122 L 14.9195,-3.84252 L 14.8924,-3.80647 L 14.8034,-3.68836
 L 14.7726,-3.65534 L 14.6717,-3.54718 L 14.6376,-3.51756 L 14.526,-3.42054 L 14.489,-3.39464 L 14.3679,-3.30982
 L 14.2385,-3.23812 L 14.1991,-3.21623 L 14.1575,-3.19859 L 14.0214,-3.14081 L 13.8799,-3.09757 L 13.8368,-3.08437
 L 13.7925,-3.07576 L 13.6473,-3.04754 L 13.5,-3.03465 L 13.455,-3.03071 L 13.3071,-3.03329 L 13.262,-3.03408
 L 13.1152,-3.0521 L 13.0704,-3.05761 L 12.9263,-3.09087 L 12.8823,-3.10103 L 12.8396,-3.11573 L 12.6998,-3.16388
 L 12.5248,-3.24546 L 12.3981,-3.32163 L 12.3594,-3.34488 L 12.3233,-3.37205 L 12.2052,-3.46105 L 12.1722,-3.49184
 L 12.064,-3.5927 L 12.0344,-3.62677 L 11.9374,-3.73839 L 11.9115,-3.77537 L 11.8267,-3.89651 L 11.755,-4.02586
 L 11.7331,-4.06534 L 11.7154,-4.1069 L 11.6576,-4.24303 L 11.6144,-4.38446 L 11.6012,-4.42763 L 11.5926,-4.47195
 L 11.5644,-4.61712 L 11.5515,-4.76445 z
M -5.96508,17.5115 L -5.71681,17.5945 L -5.40888,17.6916 L -5.09929,17.7833 L -4.78815,17.8696 L -4.47555,17.9505
 L -4.16159,18.0258 L -3.84637,18.0957 L -3.52997,18.1601 L -3.21249,18.2189 L -2.89404,18.2722 L -2.5747,18.32
 L -2.25458,18.3621 L -1.93378,18.3987 L -1.61238,18.4296 L -1.29049,18.4549 L -0.968215,18.4746 L -0.64564,18.4887
 L -0.322869,18.4972 L 0,18.5 L 0.322869,18.4972 L 0.64564,18.4887 L 0.968215,18.4746 L 1.29049,18.4549
 L 1.61238,18.4296 L 1.93378,18.3987 L 2.25458,18.3621 L 2.5747,18.32 L 2.89404,18.2722 L 3.21249,18.2189
 L 3.52997,18.1601 L 3.84637,18.0957 L 4.16159,18.0258 L 4.47555,17.9505 L 4.78815,17.8696 L 5.09929,17.7833
 L 5.40888,17.6916 L 5.71681,17.5945 L 6.02301,17.4921 L 6.32737,17.3843 L 6.62981,17.2712 L 6.93022,17.1529
 L 7.22853,17.0293 L 7.52463,16.9006 L 7.81844,16.7667 L 8.10987,16.6277 L 8.39882,16.4836 L 8.68522,16.3345
 L 8.96898,16.1805 L 9.25,16.0215 L 9.5282,15.8576 L 9.80351,15.6889 L 10.0758,15.5154 L 10.3451,15.3372
 L 10.6112,15.1543 L 10.874,14.9668 L 11.1336,14.7748 L 11.3897,14.5782 L 11.6424,14.3772 L 11.8916,14.1718
 L 12.1371,13.9621 L 12.3789,13.7482 L 12.617,13.53 L 12.8512,13.3078 L 13.0815,13.0815 L 13.3078,12.8512
 L 13.53,12.617 L 13.7482,12.3789 L 13.9621,12.1371 L 14.1718,11.8916 L 14.3772,11.6424 L 14.5782,11.3897
 L 14.7748,11.1336 L 14.9668,10.874 L 15.1543,10.6112 L 15.3372,10.3451 L 15.5154,10.0758 L 15.6889,9.80351
 L 15.8576,9.5282 L 16.0215,9.25 L 16.1805,8.96898 L 16.3345,8.68522 L 16.4836,8.39882 L 16.6277,8.10987
 L 16.7667,7.81844 L 16.9006,7.52463 L 17.0293,7.22853 L 17.1529,6.93022 L 17.2712,6.62981 L 17.3843,6.32737
 L 17.4921,6.02301 L 17.5945,5.71681 L 17.6916,5.40888 L 17.7833,5.09929 L 17.8696,4.78815 L 17.9505,4.47555
 L 18.0258,4.16159 L 18.0957,3.84637 L 18.1601,3.52997 L 18.2189,3.21249 L 18.2722,2.89404 L 18.32,2.5747
 L 18.3621,2.25458 L 18.3987,1.93378 L 18.4296,1.61238 L 18.4549,1.29049 L 18.4746,0.968215 L 18.4887,0.64564
 L 18.4972,0.322869 L 18.5,-0 L 18.4972,-0.322869 L 18.4887,-0.64564 L 18.4746,-0.968215 L 18.4549,-1.29049
 L 18.4296,-1.61238 L 18.3987,-1.93378 L 18.3621,-2.25458 L 18.32,-2.5747 L 18.2813,-2.83362 L 9.90724,-1.35706
 L 9.92546,-1.21869 L 9.94522,-1.04528 L 9.96195,-0.871557 L 9.97564,-0.697564 L 9.98629,-0.523359 L 9.99391,-0.348994
 L 9.99848,-0.174523 L 10,-0 L 9.99848,0.174523 L 9.99391,0.348994 L 9.98629,0.523359 L 9.97564,0.697564
 L 9.96195,0.871557 L 9.94522,1.04528 L 9.92546,1.21869 L 9.90268,1.39173 L 9.87688,1.56434 L 9.84808,1.73648
 L 9.81627,1.90809 L 9.78148,2.07912 L 9.7437,2.24951 L 9.70296,2.41922 L 9.65926,2.58819 L 9.61262,2.75637
 L 9.56305,2.92372 L 9.51056,3.09017 L 9.45518,3.25568 L 9.39693,3.4202 L 9.3358,3.58368 L 9.27184,3.74607
 L 9.20505,3.90731 L 9.13545,4.06737 L 9.06308,4.22618 L 8.98794,4.38371 L 8.91006,4.5399 L 8.82948,4.69472
 L 8.7462,4.8481 L 8.66025,5 L 8.57167,5.15038 L 8.48048,5.29919 L 8.38671,5.44639 L 8.29038,5.59193
 L 8.19152,5.73576 L 8.09017,5.87785 L 7.98635,6.01815 L 7.88011,6.15661 L 7.77146,6.2932 L 7.66044,6.42788
 L 7.5471,6.56059 L 7.43145,6.69131 L 7.31354,6.81998 L 7.1934,6.94658 L 7.07107,7.07107 L 6.94658,7.1934
 L 6.81998,7.31354 L 6.69131,7.43145 L 6.56059,7.5471 L 6.42788,7.66044 L 6.2932,7.77146 L 6.15661,7.88011
 L 6.01815,7.98635 L 5.87785,8.09017 L 5.73576,8.19152 L 5.59193,8.29038 L 5.44639,8.38671 L 5.29919,8.48048
 L 5.15038,8.57167 L 5,8.66025 L 4.8481,8.7462 L 4.69472,8.82948 L 4.5399,8.91006 L 4.38371,8.98794
 L 4.22618,9.06308 L 4.06737,9.13545 L 3.90731,9.20505 L 3.74607,9.27184 L 3.58368,9.3358 L 3.4202,9.39693
 L 3.25568,9.45518 L 3.09017,9.51056 L 2.92372,9.56305 L 2.75637,9.61262 L 2.58819,9.65926 L 2.41922,9.70296
 L 2.24951,9.7437 L 2.07912,9.78148 L 1.90809,9.81627 L 1.73648,9.84808 L 1.56434,9.87688 L 1.39173,9.90268
 L 1.21869,9.92546 L 1.04528,9.94522 L 0.871557,9.96195 L 0.697564,9.97564 L 0.523359,9.98629 L 0.348994,9.99391
 L 0.174523,9.99848 L 0,10 L -0.174523,9.99848 L -0.348994,9.99391 L -0.523359,9.98629 L -0.697564,9.97564
 L -0.871557,9.96195 L -1.04528,9.94522 L -1.21869,9.92546 L -1.39173,9.90268 L -1.56434,9.87688 L -1.73648,9.84808
 L -1.90809,9.81627 L -2.07912,9.78148 L -2.24951,9.7437 L -2.41922,9.70296 L -2.58819,9.65926 L -2.75637,9.61262
 L -2.92372,9.56305 L -3.05682,9.52108 z
M -4.31756,14.0979 L -4.31677,14.0527 L -4.31419,13.9049 L -4.29617,13.7581 L -4.29067,13.7133 L -4.2574,13.5692
 L -4.24724,13.5252 L -4.23254,13.4825 L -4.1844,13.3427 L -4.1219,13.2086 L -4.10282,13.1677 L -4.07956,13.129
 L -4.0034,13.0022 L -3.91439,12.8841 L -3.88722,12.8481 L -3.85643,12.8151 L -3.75557,12.7069 L -3.7215,12.6773
 L -3.60989,12.5803 L -3.48874,12.4954 L -3.45176,12.4695 L -3.41228,12.4477 L -3.28293,12.376 L -3.1468,12.3182
 L -3.10524,12.3005 L -3.06207,12.2873 L -2.92064,12.2441 L -2.77547,12.2159 L -2.73115,12.2073 L -2.68617,12.2033
 L -2.53885,12.1904 L -2.39098,12.193 L -2.34584,12.1938 L -2.19905,12.2118 L -2.15424,12.2173 L -2.11025,12.2275
 L -1.96616,12.2608 L -1.82632,12.3089 L -1.78364,12.3236 L -1.74272,12.3427 L -1.60869,12.4052 L -1.48192,12.4813
 L -1.44322,12.5046 L -1.40717,12.5318 L -1.28906,12.6208 L -1.25604,12.6516 L -1.14788,12.7524 L -1.05086,12.864
 L -1.02124,12.8981 L -0.995343,12.9351 L -0.910518,13.0562 L -0.88863,13.0957 L -0.816932,13.2251 L -0.799292,13.2666
 L -0.741507,13.4028 L -0.698269,13.5442 L -0.685069,13.5874 L -0.676455,13.6317 L -0.648236,13.7768 L -0.644301,13.8218
 L -0.631412,13.9691 L -0.633993,14.117 L -0.634781,14.1622 L -0.640283,14.207 L -0.658305,14.3538 L -0.691573,14.4979
 L -0.701729,14.5418 L -0.716428,14.5845 L -0.764576,14.7244 L -0.783656,14.7653 L -0.846156,14.8993 L -0.922324,15.0261
 L -0.945577,15.0648 L -0.972747,15.1008 L -1.06175,15.2189 L -1.16261,15.3271 L -1.1934,15.3601 L -1.22747,15.3897
 L -1.33908,15.4868 L -1.37607,15.5127 L -1.49721,15.5975 L -1.62656,15.6692 L -1.66604,15.6911 L -1.7076,15.7087
 L -1.84373,15.7665 L -1.98516,15.8097 L -2.02833,15.8229 L -2.07265,15.8315 L -2.21782,15.8598 L -2.36515,15.8726
 L -2.41012,15.8766 L -2.55799,15.874 L -2.60313,15.8732 L -2.64794,15.8677 L -2.79473,15.8497 L -2.93883,15.8164
 L -2.98282,15.8063 L -3.0255,15.7916 L -3.16534,15.7434 L -3.29937,15.6809 L -3.34028,15.6618 L -3.46705,15.5857
 L -3.50575,15.5624 L -3.5418,15.5352 L -3.65991,15.4462 L -3.76807,15.3454 L -3.80109,15.3146 L -3.83071,15.2805
 L -3.92773,15.1689 L -4.01256,15.0478 L -4.03845,15.0108 L -4.11015,14.8814 L -4.13204,14.842 L -4.14968,14.8004
 L -4.20747,14.6643 L -4.2507,14.5228 L -4.2639,14.4797 L -4.29212,14.3345 L -4.30074,14.2902 L -4.31363,14.1428
 z
M 12.4058,-0 L 12.4135,-0.147686 L 12.4159,-0.192771 L 12.423,-0.237362 L 12.4461,-0.38343 L 12.4844,-0.526279
 L 12.4961,-0.569888 L 12.5491,-0.707954 L 12.5652,-0.750103 L 12.6324,-0.881872 L 12.6529,-0.922099 L 12.7334,-1.04613
 L 12.758,-1.08399 L 12.7864,-1.11908 L 12.8795,-1.23401 L 13.016,-1.37051 L 13.1309,-1.46358 L 13.166,-1.49199
 L 13.2039,-1.51658 L 13.3279,-1.59712 L 13.3681,-1.61762 L 13.4999,-1.68476 L 13.542,-1.70094 L 13.6801,-1.75394
 L 13.7237,-1.76562 L 13.8666,-1.8039 L 14.0126,-1.82703 L 14.0572,-1.83409 L 14.1023,-1.83646 L 14.25,-1.8442
 L 14.3977,-1.83646 L 14.4428,-1.83409 L 14.4874,-1.82703 L 14.6334,-1.8039 L 14.7763,-1.76562 L 14.8199,-1.75394
 L 14.958,-1.70094 L 15.0001,-1.68476 L 15.1319,-1.61762 L 15.1721,-1.59712 L 15.2961,-1.51658 L 15.334,-1.49199
 L 15.3691,-1.46358 L 15.484,-1.37051 L 15.6205,-1.23401 L 15.7136,-1.11908 L 15.742,-1.08399 L 15.7666,-1.04613
 L 15.8471,-0.922099 L 15.8676,-0.881872 L 15.9348,-0.750103 L 15.9509,-0.707954 L 16.0039,-0.569888 L 16.0156,-0.526279
 L 16.0539,-0.38343 L 16.077,-0.237362 L 16.0841,-0.192771 L 16.0865,-0.147686 L 16.0942,-0 L 16.0865,0.147686
 L 16.0841,0.192771 L 16.077,0.237362 L 16.0539,0.38343 L 16.0156,0.526279 L 16.0039,0.569888 L 15.9509,0.707954
 L 15.9348,0.750103 L 15.8676,0.881872 L 15.8471,0.922099 L 15.7666,1.04613 L 15.742,1.08399 L 15.7136,1.11908
 L 15.6205,1.23401 L 15.484,1.37051 L 15.3691,1.46358 L 15.334,1.49199 L 15.2961,1.51658 L 15.1721,1.59712
 L 15.1319,1.61762 L 15.0001,1.68476 L 14.958,1.70094 L 14.8199,1.75394 L 14.7763,1.76562 L 14.6334,1.8039
 L 14.4874,1.82703 L 14.4428,1.83409 L 14.3977,1.83646 L 14.25,1.8442 L 14.1023,1.83646 L 14.0572,1.83409
 L 14.0126,1.82703 L 13.8666,1.8039 L 13.7237,1.76562 L 13.6801,1.75394 L 13.542,1.70094 L 13.4999,1.68476
 L 13.3681,1.61762 L 13.3279,1.59712 L 13.2039,1.51658 L 13.166,1.49199 L 13.1309,1.46358 L 13.016,1.37051
 L 12.8795,1.23401 L 12.7864,1.11908 L 12.758,1.08399 L 12.7334,1.04613 L 12.6529,0.922099 L 12.6324,0.881872
 L 12.5652,0.750103 L 12.5491,0.707954 L 12.4961,0.569888 L 12.4844,0.526279 L 12.4461,0.38343 L 12.423,0.237362
 L 12.4159,0.192771 L 12.4135,0.147686 z
" stroke="black" fill="lightgray" stroke-width="0.5"/>
</svg>
